<svg xmlns="http://www.w3.org/2000/svg" width="180" height="48" fill="none">
  <path fill="black"
    d="M.332 40.523h1.397l1.69 4.77 1.917-4.77h1.34v5.676h-1.1v-2.847l.035-1.163-1.567 4.01h-1.31l-1.38-4.069.071 1.222V46.2H.332v-5.676Z" />
  <path fill="black" fill-rule="evenodd"
    d="m7.634 46.06.526-.556c-.257-.369-.397-.86-.397-1.456 0-1.473.882-2.333 2.186-2.333.593 0 1.059.136 1.398.41l.479-.51.345.346-.474.514c.258.386.386.9.386 1.532 0 1.514-.93 2.286-2.198 2.286-.573 0-1.035-.158-1.38-.427l-.508.538-.363-.345Zm3.017-3.222c-.158-.17-.398-.275-.731-.275-.848 0-1.082.701-1.082 1.456 0 .24.024.48.106.672l1.707-1.853Zm.345 1.175c0-.246-.024-.497-.106-.708L9.172 45.16c.175.17.415.275.76.275.853 0 1.064-.626 1.064-1.421Z"
    clip-rule="evenodd" />
  <path fill="black"
    d="M13.071 41.814h1.07v.59c.21-.297.632-.677 1.181-.677.246 0 .427.023.567.076l-.152.882a2.37 2.37 0 0 0-.561-.046c-.444 0-.842.251-1.035.497v3.063h-1.07v-4.385Z" />
  <path fill="black" fill-rule="evenodd"
    d="M16.076 44.083c0-1.795.907-2.368 2.146-2.368 1.269 0 1.783.83 1.783 2.204v.386h-2.859c0 .965.602 1.128 1.38 1.128.304 0 .825-.105 1.187-.181l.17.83a5.66 5.66 0 0 1-1.55.216c-1.38 0-2.257-.496-2.257-2.215Zm2.83-.491c.006-.661-.263-1.117-.79-1.117-.537 0-.9.392-.946 1.117h1.736ZM22.59 44.048c0-1.474.882-2.345 2.186-2.345 1.462 0 2.134.86 2.134 2.304 0 1.514-.93 2.291-2.198 2.291-1.357 0-2.122-.853-2.122-2.25Zm3.239-.041c0-.743-.21-1.45-1.076-1.45-.854 0-1.088.707-1.088 1.461 0 .813.264 1.421 1.1 1.421.853 0 1.064-.637 1.064-1.432ZM27.957 47.772l.175-.865c.403.087.994.175 1.333.175.672 0 1.134-.094 1.134-.865v-.234a1.36 1.36 0 0 1-.83.292c-1.006 0-2.134-.257-2.134-2.245 0-1.532 1.04-2.327 2.303-2.327.62 0 1.1.082 1.72.205v4.42c0 1.204-1.047 1.672-2.035 1.672-.667 0-1.28-.129-1.666-.228Zm2.63-2.526v-2.572c-.175-.035-.362-.088-.654-.088-.877 0-1.234.602-1.234 1.456 0 1.04.427 1.397 1.134 1.397.304 0 .556-.1.755-.193ZM37.755 45.147l-.795-1.04a2.913 2.913 0 0 1-.397.023h-.556v2.07h-1.099v-5.678h2.076c1.204 0 2.052.562 2.052 1.784 0 .643-.304 1.222-.97 1.543l.7.865c.334.41.714.614 1.211.743l-.24.842c-.812-.041-1.432-.456-1.982-1.152ZM36.61 43.33c.837 0 1.298-.316 1.298-.982 0-.69-.321-.953-1.104-.953h-.796v1.935h.602ZM40.427 44.048c0-1.474.883-2.345 2.187-2.345 1.462 0 2.134.86 2.134 2.304 0 1.514-.93 2.291-2.198 2.291-1.357 0-2.123-.853-2.123-2.25Zm3.24-.041c0-.743-.211-1.45-1.077-1.45-.853 0-1.087.707-1.087 1.461 0 .813.263 1.421 1.1 1.421.853 0 1.063-.637 1.063-1.432Z"
    clip-rule="evenodd" />
  <path fill="black"
    d="M45.736 41.814h1.07v.474c.362-.287.888-.585 1.42-.585.65 0 1.041.27 1.222.66.334-.297.912-.66 1.532-.66 1.374 0 1.392.97 1.392 1.719v2.777h-1.07v-2.654c0-.597-.129-.906-.69-.906-.363 0-.766.175-1.053.356.018.14.024.28.024.421V46.2h-1.058v-2.654c0-.638-.123-.9-.679-.9-.344 0-.76.175-1.04.35V46.2h-1.07v-4.385ZM53.313 46.111l.123-.824c.462.07.912.146 1.245.146.684 0 .889-.21.889-.45 0-.678-2.21-.415-2.21-1.964 0-.883.8-1.316 1.719-1.316.514 0 .976.105 1.315.228l-.175.795c-.345-.082-.678-.163-1.14-.163-.492 0-.655.216-.655.403 0 .696 2.192.503 2.192 1.959 0 1.099-1.099 1.373-1.83 1.373-.62 0-1.105-.081-1.473-.187Z" />
  <path fill="black" fill-rule="evenodd"
    d="M57.3 43.966c0-1.509 1.012-2.263 2.269-2.263.304 0 .485.035.69.076v-1.631h1.064v6.051h-1.064v-.35c-.217.18-.515.426-1.047.426-.842 0-1.912-.386-1.912-2.31ZM60.26 45.1v-2.456a2.54 2.54 0 0 0-.679-.087c-.865 0-1.21.62-1.21 1.438 0 1.04.456 1.386 1.03 1.386.31 0 .666-.176.859-.281ZM62.276 44.983c0-1.105.994-1.327 1.806-1.333l.866-.012v-.386c0-.502-.293-.625-.924-.625-.415 0-.9.111-1.222.193l-.216-.795a4.64 4.64 0 0 1 1.63-.31c1.211 0 1.778.356 1.778 1.298v2.134c0 .21.176.257.398.275l-.047.818h-.234c-.468 0-.97-.111-1.07-.497-.28.21-.725.532-1.362.532-.889 0-1.403-.45-1.403-1.292Zm2.672.175v-.87l-.813.034c-.503.006-.824.217-.824.58 0 .385.275.531.608.531.368 0 .8-.204 1.029-.275Z"
    clip-rule="evenodd" />
  <path fill="black"
    d="M67.438 40.148h1.07v6.051h-1.07v-6.051ZM71.741 42.586h-.643v-.772h.643v-.304c0-1.245.755-1.567 1.626-1.567.31 0 .514.035.742.106l-.175.853a2.868 2.868 0 0 0-.52-.04c-.422 0-.597.239-.597.707v.245h.941v.772h-.941v5.215h-1.076v-5.215ZM75.95 46.2h-.409l-1.467-4.386h1.146l.836 2.807.199.736.234-.73.953-2.813h1.087l-2.146 6.157h-1.029l.597-1.772ZM79.254 40.148h1.064v6.051h-1.064v-6.051ZM81.575 40.148h1.064v3.578l1.52-1.9h1.17l-1.69 2.023.72.865c.344.404.66.643 1.098.766l-.14.813c-.55-.035-1.093-.117-1.655-.848l-1.023-1.321v2.075h-1.064v-6.051Z" />
  <path fill="black" fill-rule="evenodd"
    d="M85.96 44.083c0-1.795.906-2.368 2.14-2.368 1.269 0 1.783.83 1.783 2.204v.386h-2.859c0 .965.602 1.128 1.386 1.128.304 0 .824-.105 1.187-.181l.169.83a5.66 5.66 0 0 1-1.55.216c-1.385 0-2.256-.496-2.256-2.215Zm2.824-.491c.006-.661-.257-1.117-.784-1.117-.543 0-.9.392-.953 1.117h1.737Z"
    clip-rule="evenodd" />
  <path fill="black"
    d="m90.561 46.111.129-.824c.456.07.906.146 1.245.146.678 0 .883-.21.883-.45 0-.678-2.21-.415-2.21-1.964 0-.883.801-1.316 1.719-1.316.514 0 .982.105 1.315.228l-.175.795c-.345-.082-.672-.163-1.14-.163-.491 0-.649.216-.649.403 0 .696 2.192.503 2.192 1.959 0 1.099-1.099 1.373-1.83 1.373a5.4 5.4 0 0 1-1.479-.187ZM94.818 40.148h1.07v3.578l1.514-1.9h1.175l-1.696 2.023.725.865c.345.404.655.643 1.1.766l-.147.813c-.543-.035-1.093-.117-1.654-.848l-1.017-1.321v2.075h-1.07v-6.051Z" />
  <path fill="black" fill-rule="evenodd"
    d="M99.202 44.048c0-1.474.883-2.345 2.187-2.345 1.462 0 2.134.86 2.134 2.304 0 1.514-.93 2.291-2.198 2.291-1.363 0-2.123-.853-2.123-2.25Zm3.239-.041c0-.743-.21-1.45-1.081-1.45-.848 0-1.082.707-1.082 1.461 0 .813.263 1.421 1.099 1.421.854 0 1.064-.637 1.064-1.432Z"
    clip-rule="evenodd" />
  <path fill="black"
    d="M104.511 41.814h1.07v.474c.357-.287.889-.585 1.421-.585.649 0 1.04.27 1.222.66.333-.297.912-.66 1.531-.66 1.374 0 1.392.97 1.392 1.719v2.777h-1.07v-2.654c0-.597-.129-.906-.69-.906-.362 0-.766.175-1.052.356.017.14.023.28.023.421V46.2H107.3v-2.654c0-.638-.123-.9-.678-.9-.345 0-.76.175-1.041.35V46.2h-1.07v-4.385ZM112.375 41.814h1.064v.474c.362-.287.894-.585 1.426-.585.649 0 1.041.27 1.216.66.34-.297.918-.66 1.538-.66 1.374 0 1.386.97 1.386 1.719v2.777h-1.064v-2.654c0-.597-.129-.906-.69-.906-.363 0-.766.175-1.053.356.012.14.024.28.024.421V46.2h-1.064v-2.654c0-.638-.117-.9-.673-.9-.345 0-.76.175-1.046.35V46.2h-1.064v-4.385ZM120.221 44.568v-2.753h1.07v2.636c0 .632.105.906.678.906.462 0 .935-.233 1.14-.344v-3.198h1.07v4.384h-1.07v-.473c-.287.21-.848.573-1.473.573-1.322 0-1.415-.83-1.415-1.73ZM125.424 41.814h1.07v.468c.322-.234.859-.579 1.467-.579 1.345 0 1.433.813 1.433 1.719v2.777h-1.064v-2.654c0-.667-.129-.906-.713-.906-.439 0-.86.198-1.123.344V46.2h-1.07v-4.385Z" />
  <path fill="black" fill-rule="evenodd"
    d="M130.359 44.083c0-1.795.906-2.368 2.139-2.368 1.269 0 1.784.83 1.784 2.204v.386h-2.859c0 .965.602 1.128 1.385 1.128.304 0 .825-.105 1.187-.181l.17.83a5.664 5.664 0 0 1-1.55.216c-1.385 0-2.256-.496-2.256-2.215Zm2.824-.491c.011-.661-.258-1.117-.784-1.117-.544 0-.9.392-.953 1.117h1.737Z"
    clip-rule="evenodd" />
  <path fill="black"
    d="M69.508-.03h10.939l13.74 35.32h-8.648L75.15 6.314 66.41 35.29h-7.115l-.28-4.543L69.507-.03Z" />
  <path fill="black" fill-rule="evenodd"
    d="M8.85 35.29H.361V-.03h28.145l-2.081 6.648H8.85V35.29Zm12.313-12.208v-6.145H8.85v6.145h12.313Z"
    clip-rule="evenodd" />
  <path fill="black" fill-rule="evenodd"
    d="m45.093 27.7-4-4.647c-.601.047-1.244.047-1.9.047h-2.595v12.19h-8.542V-.03h13.74c7.94 0 13.634 3.649 13.634 11.542 0 3.946-1.895 7.396-5.695 9.541l3.596 3.9c1.952 2.093 3.993 3.31 9.02 3.654l-2.735 6.683c-7.238 0-10.828-3.292-14.523-7.59Zm-5.601-10.54c5.051 0 7.197-2.105 7.197-5.45 0-3.542-1.45-5.045-5.993-5.045h-4.098V17.16h2.894Z"
    clip-rule="evenodd" />
  <path fill="black"
    d="M92.953-.03h10.342l9.84 27.73L124.43-.03h9.84v35.32h-8.495V22.152l.251-8.29-8.389 21.428h-9.495l-7.244-22.03.55 8.892V35.29h-8.495V-.03Z" />
  <path fill="black" fill-rule="evenodd"
    d="M179.838.67c.428 16.884.797 31.404-18.002 45.629-18.803-14.229-18.43-28.753-17.995-45.641l.017-.676h35.962l.018.689Zm-17.464 14.016v6.999a7.935 7.935 0 0 0 5.765 7.635h-.006a6.338 6.338 0 0 1-6.343 6.344 6.341 6.341 0 0 1-6.344-6.344 7.935 7.935 0 0 0 5.765-7.635v-6.999h-4.666v-1.169h4.666v-3.332h1.163v3.332h4.66v1.17h-4.66Zm-8.513-.602V7.086h4.66v-1.17h-4.66V2.585h-1.163v3.333h-4.666v1.169h4.666v6.998a7.923 7.923 0 0 1-5.765 7.624v.006a6.348 6.348 0 0 0 6.35 6.35 6.35 6.35 0 0 0 6.343-6.35v-.006a7.923 7.923 0 0 1-5.765-7.624Zm15.862-6.998v6.998a7.923 7.923 0 0 1-5.765 7.624v.006a6.348 6.348 0 0 0 6.35 6.35 6.35 6.35 0 0 0 6.343-6.35v-.006a7.923 7.923 0 0 1-5.764-7.624V7.086h4.665v-1.17h-4.665V2.585h-1.164v3.333h-4.66v1.169h4.66Z"
    clip-rule="evenodd" />
</svg>