<svg width="17" height="17" viewBox="0 0 20 20" fill="none" xmlns="http://www.w3.org/2000/svg">
  <path d="M19.9399 5.87692C19.9232 5.04731 19.7661 4.22653 19.4751 3.44946C19.224 2.78217 18.8304 2.17769 18.3217 1.67816C17.8221 1.16952 17.2176 0.775959 16.5504 0.524933C15.7733 0.233955 14.9525 0.0768014 14.1229 0.0601485C13.0563 0.0111125 12.7159 0 10 0C7.28414 0 6.94371 0.0111125 5.87692 0.0601485C5.04737 0.0767601 4.22664 0.233916 3.44963 0.524933C2.78239 0.776085 2.17797 1.16976 1.67851 1.67851C1.16976 2.17797 0.776085 2.78239 0.524933 3.44963C0.233975 4.22666 0.0768213 5.04737 0.0601485 5.87692C0.0111125 6.94371 0 7.28485 0 10C0 12.7151 0.0111125 13.0563 0.0601485 14.1229C0.0767403 14.9525 0.233896 15.7733 0.524933 16.5504C0.776011 17.2177 1.16963 17.8221 1.67834 18.3217C2.17786 18.8304 2.78235 19.224 3.44963 19.4751C4.22669 19.7661 5.04748 19.9233 5.87709 19.9399C6.94371 19.9889 7.28414 20 10 20C12.7159 20 13.0563 19.9889 14.1229 19.9399C14.9525 19.9232 15.7733 19.7661 16.5504 19.4751C17.2147 19.2181 17.818 18.8253 18.3216 18.3216C18.8253 17.818 19.2181 17.2147 19.4751 16.5504C19.7661 15.7733 19.9233 14.9525 19.9399 14.1229C19.9889 13.0563 20 12.7159 20 10C20 7.28414 19.9889 6.94371 19.9399 5.87692ZM18.1398 14.0405C18.1323 14.6747 18.0158 15.3028 17.7953 15.8974C17.629 16.3287 17.3742 16.7204 17.0473 17.0473C16.7204 17.3742 16.3287 17.629 15.8974 17.7953C15.3028 18.0158 14.6747 18.1324 14.0405 18.14C12.9863 18.1881 12.67 18.1984 9.99965 18.1984C7.3293 18.1984 7.01304 18.1881 5.95876 18.14C5.32463 18.1325 4.69652 18.016 4.10192 17.7955C3.66761 17.6352 3.27475 17.3796 2.95222 17.0474C2.62035 16.7248 2.36498 16.332 2.20486 15.8977C1.98424 15.303 1.86753 14.6748 1.85984 14.0405C1.81169 12.9861 1.80146 12.6698 1.80146 9.99965C1.80146 7.32948 1.81169 7.01339 1.85984 5.95876C1.86751 5.32472 1.98422 4.69673 2.20486 4.10227C2.36518 3.66796 2.6208 3.2751 2.95292 2.95257C3.27555 2.62041 3.66854 2.36478 4.10298 2.2045C4.69761 1.98411 5.3257 1.86758 5.95982 1.86002C7.01427 1.81186 7.33053 1.80163 10.0007 1.80163C12.6709 1.80163 12.9871 1.81186 14.0416 1.86002C14.6756 1.86771 15.3035 1.98436 15.8979 2.20486C16.3322 2.36518 16.7251 2.6208 17.0476 2.95292C17.3797 3.27545 17.6353 3.66831 17.7957 4.10262C18.0161 4.69725 18.1326 5.32535 18.1402 5.95947C18.1883 7.01392 18.1985 7.33018 18.1985 10.0004C18.1985 12.6705 18.1881 12.9866 18.14 14.0412L18.1398 14.0405ZM10 4.8648C8.9844 4.8648 7.9916 5.16596 7.14715 5.73019C6.3027 6.29443 5.64454 7.0964 5.25587 8.03469C4.86721 8.97299 4.76551 10.0055 4.96363 11.0016C5.16175 11.9976 5.6508 12.9126 6.36893 13.6308C7.08705 14.3489 8.00201 14.838 8.9981 15.0362C9.99418 15.2343 11.0267 15.1326 11.965 14.744C12.9033 14.3554 13.7053 13.6972 14.2695 12.8528C14.8338 12.0084 15.135 11.0156 15.135 10C15.135 9.32564 15.0022 8.65789 14.7442 8.03486C14.4861 7.41183 14.1079 6.84572 13.6311 6.36887C13.1542 5.89202 12.5882 5.51377 11.9651 5.2557C11.3421 4.99763 10.6744 4.8648 10 4.8648ZM10 13.3332C9.34065 13.3332 8.6961 13.1377 8.14787 12.7714C7.59964 12.4051 7.17234 11.8844 6.92002 11.2752C6.6677 10.6661 6.60168 9.99577 6.73031 9.34909C6.85895 8.70241 7.17645 8.10839 7.64269 7.64216C8.10892 7.17592 8.70294 6.85842 9.34962 6.72978C9.9963 6.60115 10.6666 6.66717 11.2758 6.91949C11.8849 7.17182 12.4056 7.59911 12.7719 8.14734C13.1382 8.69557 13.3337 9.34012 13.3337 9.99947C13.3338 10.4373 13.2476 10.8708 13.08 11.2753C12.9125 11.6798 12.6669 12.0473 12.3574 12.3569C12.0478 12.6665 11.6803 12.9121 11.2758 13.0796C10.8713 13.2472 10.4378 13.3334 10 13.3334V13.3332ZM15.338 3.46198C15.1008 3.46198 14.8689 3.53233 14.6717 3.66412C14.4744 3.79592 14.3207 3.98325 14.2299 4.20242C14.1391 4.42158 14.1154 4.66275 14.1617 4.89542C14.2079 5.12809 14.3222 5.34181 14.4899 5.50956C14.6577 5.6773 14.8714 5.79154 15.104 5.83782C15.3367 5.8841 15.5779 5.86035 15.7971 5.76956C16.0162 5.67878 16.2036 5.52504 16.3353 5.3278C16.4671 5.13055 16.5375 4.89865 16.5375 4.66142C16.5375 4.34331 16.4111 4.03823 16.1862 3.81329C15.9612 3.58835 15.6562 3.46198 15.338 3.46198Z" fill="black"/>
</svg>