<svg width="155" height="49" viewBox="0 0 155 49" fill="none" xmlns="http://www.w3.org/2000/svg">
<path d="M0.181641 1.18209V18.5034C0.181641 35.8579 18.899 48.7705 18.899 48.7705C18.899 48.7705 37.6195 35.8579 37.6195 18.5034V1.18209H0.181641Z" fill="white"/>
<path d="M37.4379 1.36839V18.5028C37.4379 34.9253 20.334 47.5175 18.899 48.5429C17.4644 47.5175 0.363313 34.9253 0.363313 18.5028V1.36839H37.4379ZM0 0.995117V18.5028C0 35.7573 18.6099 48.7952 18.7975 48.925L18.899 48.9951L19.0005 48.925C19.1886 48.7952 37.8016 35.7578 37.8016 18.5028V0.995117H0Z" fill="#231F20"/>
<path d="M8.06487 7.41636C8.06487 7.41636 7.3765 7.42057 7.28999 7.41636C7.14476 7.40469 7.07419 6.85529 7.37376 6.83614L30.7522 7.44673C30.9612 7.45607 30.9116 8.00827 30.5628 8.00827H30.0124C30.0124 8.00827 18.4752 17.0798 20.2281 25.303C20.6592 27.3235 23.0949 30.0102 23.0949 30.0102L22.5031 30.1242C22.5031 30.1242 20.9219 28.021 18.6073 27.1894C16.9023 26.5779 15.0083 27.7949 17.2009 30.1634L17.2901 30.3867C17.2901 30.3867 7.2044 23.7136 8.06487 7.41636Z" fill="#231F20"/>
<path d="M18.7946 7.25488L18.6625 3.63804L18.3457 3.56096L18.2979 7.22592L18.7946 7.25488Z" fill="#231F20"/>
<path d="M18.5496 5.86826C18.5496 5.86826 17.4775 5.78697 17.4989 4.98484C17.5153 4.31398 18.3407 4.24811 18.3407 4.24811L18.5496 3.9267C18.5496 3.9267 18.1923 3.90567 17.9551 4.08554C17.7529 4.2355 17.6181 4.3906 17.3058 4.28175C17.3058 4.28175 16.6766 3.94492 16.1913 3.9267C15.7561 3.91455 15.2635 4.26166 15.1897 4.32052C15.1897 4.32052 14.8027 4.6424 14.0779 4.03929C13.8708 3.86036 13.466 3.6791 12.9679 3.75011C12.5691 3.80663 12.6288 4.08554 11.7214 4.43124C11.7214 4.43124 11.0635 4.60596 10.9611 4.35556C10.9611 4.35556 10.6683 4.86665 11.5142 4.95868C11.9672 5.00586 12.5322 4.6424 12.891 4.65502C13.736 4.66763 13.7046 4.93906 13.9272 5.14788C14.0306 5.24786 14.7836 5.74867 15.4861 5.38521C16.0502 5.08808 16.0743 5.09416 16.2628 5.10957C16.4435 5.1348 16.4727 5.49639 17.3004 5.54077C17.3878 5.54918 17.5439 6.11633 18.4431 6.15137L18.5496 5.86826Z" fill="#231F20"/>
<path d="M30.3686 21.2282C30.3686 21.2282 30.3936 21.0171 30.9072 20.8965C30.9495 20.8881 31.2076 20.9292 31.0264 21.3226L30.9882 21.4137C30.9882 21.4137 30.8498 21.8005 30.782 23.0156L30.6103 27.0478C30.6103 27.1954 30.5744 27.8415 31.0519 28.5922C31.0519 28.5922 31.4348 29.1944 31.3674 30.1652C31.3674 30.1652 31.1202 32.3128 31.0911 32.4137C31.0615 32.5132 30.995 33.0332 30.3308 32.9874C30.3308 32.9874 29.6729 32.8837 29.7116 32.3044C29.7166 32.2058 30.3995 21.3375 30.3686 21.2282Z" fill="#231F20"/>
<path d="M30.1931 27.594L23.3294 28.9829C23.3294 28.9829 23.0917 29.1955 23.0239 29.3398C23.0239 29.3398 22.8122 29.729 23.1714 29.6963C23.1846 29.6963 23.2274 29.6295 23.2274 29.6295C23.2274 29.6295 23.3294 29.3398 23.5379 29.3085L30.2623 27.8757L30.1931 27.594Z" fill="#231F20"/>
<path d="M17.8622 26.9278L17.8271 30.1541L18.5547 30.334L18.6257 26.705L17.8622 26.9278Z" fill="#231F20"/>
<path d="M29.8849 20.7703C29.8849 20.7703 29.6003 30.9299 29.3568 31.6807C29.3568 31.6807 29.3126 32.857 27.8739 33.2256C27.8739 33.2256 9.06053 33.2256 8.4327 33.2032C8.4327 33.2032 6.00334 33.014 5.96965 30.687C5.96965 30.687 5.4693 18.4452 5.57265 17.2997C5.57265 17.2997 5.7106 17.1245 6.02065 17.4044L6.67989 17.908C6.67989 17.908 6.88749 18.1014 6.71084 18.5891C6.71084 18.5891 5.8144 22.6955 6.67989 25.1258C6.67989 25.1258 7.53763 28.9837 10.2615 29.3406C10.2615 29.3406 16.3677 30.2343 25.4714 29.7363C25.4714 29.7363 28.5068 29.2728 29.0572 25.8746C29.0572 25.8746 29.7123 22.6236 28.9152 20.2662C28.9152 20.2662 28.8136 20.0518 29.37 20.2312C29.37 20.2312 29.9168 20.484 29.8849 20.7703" fill="#231F20"/>
<path d="M6.15946 23.0446C6.15946 23.0446 6.34749 23.2077 6.57285 23.0446C6.57285 23.0446 6.44218 22.6148 6.67938 22.5592C6.67938 22.5592 7.83761 22.5172 8.01608 22.4929C8.01608 22.4929 8.29744 22.5975 8.02655 22.9171C8.02655 22.9171 6.47087 24.6793 6.39028 24.6793L5.85032 24.7021C5.85032 24.7021 4.50726 23.3408 4.13894 22.8811C4.13894 22.8811 3.88262 22.6148 4.24411 22.5882H5.22705C5.22705 22.5882 5.43466 22.6148 5.46061 22.8022C5.4861 22.9956 5.46061 23.0675 5.46061 23.0675C5.46061 23.0675 5.57943 23.231 5.82164 23.1507C5.99601 23.0867 6.15946 23.0446 6.15946 23.0446Z" fill="#231F20"/>
<path d="M53.1304 39.4607C51.867 39.4462 50.8936 39.4312 50.06 39.4027V42.2824C50.838 42.2684 51.7277 42.2539 52.8663 42.2389C53.1996 42.2389 53.2146 42.3973 53.2146 42.7V42.9014C53.2146 43.2036 53.1996 43.3625 52.8663 43.3625C51.7277 43.3466 50.838 43.3335 50.06 43.3186V47.4227C50.06 47.7534 49.9757 47.8398 49.7126 47.8398H49.1289C48.782 47.8398 48.6982 47.7824 48.6982 47.4227V38.5959C48.6982 38.2371 48.8508 38.2227 49.1289 38.2227H53.1304C53.353 38.2227 53.4777 38.2642 53.4777 38.5959V39C53.4777 39.3018 53.4641 39.4607 53.1304 39.4607Z" fill="#231F20"/>
<path d="M61.6897 38.7692L58.9389 44.0964V47.4227C58.9389 47.7534 58.8419 47.8398 58.592 47.8398H58.0092C57.6473 47.8398 57.5776 47.7824 57.5776 47.4227V44.2272L54.7704 38.7692C54.7021 38.6398 54.6875 38.5394 54.6875 38.4525C54.6875 38.2937 54.7981 38.2227 54.9798 38.2227H55.7155C56.021 38.2227 56.077 38.3086 56.1885 38.5249L58.2578 42.657L60.398 38.5249C60.5091 38.3086 60.5656 38.2227 60.8706 38.2227H61.4684C61.6491 38.2227 61.7734 38.2937 61.7734 38.4525C61.7866 38.5394 61.7598 38.6398 61.6897 38.7692Z" fill="#231F20"/>
<path d="M67.7468 47.8398H63.8706C63.5232 47.8398 63.4395 47.7824 63.4395 47.4227V38.5964C63.4395 38.2371 63.5915 38.2227 63.8706 38.2227H64.4538C64.7607 38.2227 64.8007 38.3521 64.8007 38.5964V46.6439C65.607 46.6308 66.5385 46.6168 67.7468 46.6018C68.0805 46.6018 68.0805 46.7597 68.0805 47.0625V47.4656C68.0805 47.7969 67.9695 47.8398 67.7468 47.8398Z" fill="#231F20"/>
<path d="M75.848 47.8398H74.9042C74.5974 47.8398 74.4731 47.7824 74.2491 47.5231L70.9711 43.8656V47.4227C70.9711 47.7534 70.8878 47.8398 70.6237 47.8398H70.0405C69.6931 47.8398 69.6094 47.7824 69.6094 47.4227V38.5964C69.6094 38.2371 69.7623 38.2227 70.0405 38.2227H70.6237C70.9306 38.2227 70.9711 38.3521 70.9711 38.5964V42.5716L74.2491 38.5394C74.4731 38.2647 74.556 38.2227 74.835 38.2227H75.5435C75.848 38.2227 75.8626 38.438 75.7101 38.6249L72.1389 43.0453L75.9455 47.3218C76.2104 47.6091 76.1267 47.8398 75.848 47.8398Z" fill="#231F20"/>
<path d="M82.4641 47.8398H78.1968C77.8499 47.8398 77.7666 47.7824 77.7666 47.4227V38.5964C77.7666 38.2371 77.9196 38.2227 78.1968 38.2227H82.4641C82.6845 38.2227 82.8111 38.2647 82.8111 38.5964V39C82.8111 39.3023 82.796 39.4607 82.4641 39.4607C81.198 39.4462 79.9897 39.4317 79.1279 39.4027V42.2969C79.9487 42.2684 80.9062 42.2539 82.1573 42.2394C82.4919 42.2394 82.5042 42.3978 82.5042 42.7V42.9018C82.5042 43.2036 82.4919 43.3625 82.1573 43.3625C80.9062 43.3471 79.9487 43.3335 79.1279 43.305V46.6602C79.9897 46.6308 81.198 46.6168 82.4641 46.6018C82.796 46.6018 82.8111 46.7597 82.8111 47.0625V47.4656C82.8111 47.7969 82.6845 47.8398 82.4641 47.8398Z" fill="#231F20"/>
<path d="M89.6185 46.9601C89.1605 47.9248 87.9231 47.9678 86.9793 47.9678C86.2008 47.9678 85.4373 47.8968 84.9779 47.8538C84.6169 47.8244 84.4912 47.7963 84.4912 47.58V47.0769C84.4912 46.7452 84.5062 46.6008 84.7694 46.6008C85.5333 46.6008 85.354 46.7167 87.1865 46.7167C88.1739 46.7167 88.5354 46.6162 88.5354 45.4918C88.5354 44.4271 88.5213 44.1968 87.8962 43.9225C87.3267 43.6637 86.7439 43.4049 86.173 43.1307C84.8113 42.4836 84.5882 42.2533 84.5882 40.5678C84.5882 39.8773 84.5882 39.128 85.1163 38.6388C85.6731 38.1063 86.479 38.1217 87.6322 38.1217C88.2573 38.1217 88.5905 38.1497 89.1888 38.1927C89.5352 38.2221 89.6745 38.2501 89.6745 38.4664V38.9701C89.6745 39.3013 89.6604 39.4456 89.3968 39.4456C88.8546 39.4456 88.9934 39.3737 87.8962 39.3737C87.6458 39.3737 87.1596 39.3587 86.9101 39.3587C85.9235 39.3587 85.9085 39.7909 85.9085 40.7121C85.9085 41.3891 85.9499 41.5474 86.5349 41.8352C86.9101 42.0076 87.2984 42.1814 87.6741 42.3538C89.4515 43.1741 89.8557 43.3755 89.8557 44.9741C89.8557 45.5212 89.8557 46.471 89.6185 46.9601Z" fill="#231F20"/>
<path d="M98.1645 47.8398H97.2203C96.9134 47.8398 96.7891 47.7824 96.5665 47.5231L93.2871 43.8656V47.4227C93.2871 47.7534 93.2038 47.8398 92.9393 47.8398H92.357C92.0092 47.8398 91.9268 47.7824 91.9268 47.4227V38.5964C91.9268 38.2371 92.0779 38.2227 92.357 38.2227H92.9393C93.2462 38.2227 93.2871 38.3521 93.2871 38.5964V42.5716L96.5665 38.5394C96.7891 38.2647 96.8733 38.2227 97.1506 38.2227H97.8595C98.1645 38.2227 98.1795 38.438 98.0266 38.6249L94.4558 43.0453L98.2624 47.3218C98.526 47.6091 98.4431 47.8398 98.1645 47.8398Z" fill="#231F20"/>
<path d="M105.516 40.3244C105.154 39.4746 104.39 39.2013 103.586 39.2013C102.779 39.2013 102.015 39.4746 101.653 40.3244C101.362 41.0154 101.32 42.2819 101.32 43.0448C101.32 43.8081 101.362 45.0611 101.653 45.752C102 46.6013 102.765 46.8746 103.586 46.8746C104.405 46.8746 105.154 46.6013 105.516 45.752C105.807 45.0611 105.849 43.8081 105.849 43.0448C105.849 42.2819 105.807 41.0154 105.516 40.3244ZM106.377 46.8602C105.683 47.8108 104.781 48.1416 103.586 48.1416C102.389 48.1416 101.486 47.8108 100.792 46.8602C99.9998 45.752 99.8887 44.3996 99.8887 43.0448C99.8887 41.6923 99.9998 40.3244 100.792 39.2149C101.514 38.2077 102.46 37.9484 103.586 37.9484C104.711 37.9484 105.641 38.2077 106.377 39.2149C107.169 40.3244 107.281 41.6923 107.281 43.0448C107.281 44.3996 107.169 45.752 106.377 46.8602Z" fill="#231F20"/>
<path d="M117.924 47.8398H117.341C117.09 47.8398 117.006 47.7534 116.993 47.4227L116.576 40.0357C116.464 40.4113 116.298 41.0869 116.159 41.49C115.589 43.2036 114.964 45.0896 114.533 46.2706C114.423 46.586 114.326 46.7027 114.005 46.7027H113.645C113.324 46.7027 113.241 46.586 113.13 46.2706C112.7 45.0896 112.047 43.2036 111.477 41.49C111.337 41.0869 111.185 40.4113 111.088 40.0357L110.643 47.4227C110.629 47.7534 110.559 47.8398 110.295 47.8398H109.712C109.364 47.8398 109.253 47.7824 109.282 47.4227L109.99 38.5964C110.018 38.2371 110.142 38.2227 110.421 38.2227H111.199C111.504 38.2227 111.574 38.2937 111.657 38.5249C112.226 40.0937 113.157 42.8724 113.826 44.8887C114.492 42.8724 115.423 40.0937 115.979 38.5249C116.062 38.2937 116.146 38.2227 116.451 38.2227H117.229C117.507 38.2227 117.619 38.2371 117.647 38.5964L118.354 47.4227C118.383 47.7824 118.285 47.8398 117.924 47.8398Z" fill="#231F20"/>
<path d="M128.999 47.8398H128.415C128.164 47.8398 128.081 47.7534 128.068 47.4227L127.65 40.0357C127.539 40.4113 127.373 41.0869 127.233 41.49C126.664 43.2036 126.039 45.0896 125.607 46.2706C125.496 46.586 125.398 46.7027 125.08 46.7027H124.718C124.399 46.7027 124.316 46.586 124.204 46.2706C123.774 45.0896 123.121 43.2036 122.551 41.49C122.412 41.0869 122.258 40.4113 122.162 40.0357L121.717 47.4227C121.703 47.7534 121.634 47.8398 121.37 47.8398H120.786C120.438 47.8398 120.328 47.7824 120.356 47.4227L121.063 38.5964C121.092 38.2371 121.217 38.2227 121.494 38.2227H122.273C122.578 38.2227 122.648 38.2937 122.731 38.5249C123.3 40.0937 124.232 42.8724 124.899 44.8887C125.566 42.8724 126.497 40.0937 127.052 38.5249C127.136 38.2937 127.219 38.2227 127.525 38.2227H128.304C128.581 38.2227 128.692 38.2371 128.72 38.5964L129.429 47.4227C129.457 47.7824 129.36 47.8398 128.999 47.8398Z" fill="#231F20"/>
<path d="M138.28 45.4638C138.169 46.2257 137.891 46.8746 137.502 47.3058C137.03 47.8239 136.266 48.0547 134.931 48.0547C133.612 48.0547 132.847 47.8239 132.375 47.3058C131.986 46.8746 131.708 46.2257 131.597 45.4638C131.457 44.5705 131.43 43.8361 131.43 41.7918V38.5954C131.43 38.2361 131.582 38.2217 131.86 38.2217H132.444C132.75 38.2217 132.791 38.3511 132.791 38.5954V43.0588C132.791 44.7429 132.861 45.3194 133.111 45.8954C133.389 46.5434 133.902 46.7877 134.931 46.7877C135.974 46.7877 136.488 46.5434 136.765 45.8954C137.015 45.3194 137.085 44.7429 137.085 43.0588V38.5954C137.085 38.2361 137.252 38.2217 137.53 38.2217H138.113C138.419 38.2217 138.446 38.3511 138.446 38.5954V41.7918C138.446 43.8361 138.419 44.5705 138.28 45.4638Z" fill="#231F20"/>
<path d="M147.23 47.8397H146.771C146.535 47.8397 146.368 47.8541 146.203 47.6238C145.076 45.9532 143.229 42.9442 141.879 40.7704V47.4225C141.879 47.7532 141.783 47.8397 141.532 47.8397H140.95C140.588 47.8397 140.519 47.7822 140.519 47.4225V38.5962C140.519 38.237 140.657 38.2225 140.95 38.2225H141.339C141.63 38.2225 141.713 38.237 141.838 38.4234C142.978 40.1379 144.688 42.9152 146.215 45.3057V38.5962C146.215 38.237 146.355 38.2225 146.633 38.2225H147.23C147.536 38.2225 147.578 38.3519 147.578 38.5962V47.4225C147.578 47.7532 147.481 47.8397 147.23 47.8397Z" fill="#231F20"/>
<path d="M154.525 47.8398H150.258C149.911 47.8398 149.828 47.7824 149.828 47.4227V38.5964C149.828 38.2371 149.981 38.2227 150.258 38.2227H154.525C154.746 38.2227 154.872 38.2647 154.872 38.5964V39C154.872 39.3023 154.857 39.4607 154.525 39.4607C153.26 39.4462 152.051 39.4317 151.19 39.4027V42.2969C152.01 42.2684 152.969 42.2539 154.218 42.2394C154.552 42.2394 154.566 42.3978 154.566 42.7V42.9018C154.566 43.2036 154.552 43.3625 154.218 43.3625C152.969 43.3471 152.01 43.3335 151.19 43.305V46.6602C152.051 46.6308 153.26 46.6168 154.525 46.6018C154.857 46.6018 154.872 46.7597 154.872 47.0625V47.4656C154.872 47.7969 154.746 47.8398 154.525 47.8398Z" fill="#231F20"/>
<path d="M63.9697 3.16328C63.8973 4.00186 63.8809 7.2473 63.9283 11.2131L63.9397 9.40843V9.40937C63.9966 14.1325 64.1427 19.8749 64.3972 23.8048C64.3972 23.8048 55.6573 13.3261 52.0146 7.6542C52.0146 7.6542 51.9067 6.04713 51.8876 4.86099C51.868 3.67063 51.2429 3.32119 51.2429 3.32119C51.2429 3.32119 49.415 2.04861 48.6314 1.58331C48.6314 1.58331 48.6191 17.1518 48.6191 25.0064C48.6191 31.3277 52.484 31.6621 52.484 31.6621L52.2609 13.3537C56.7568 19.8142 64.6185 32.8469 67.6429 32.2036C67.6429 32.2036 68.0135 15.4952 68.1678 10.2844C68.3217 5.07308 63.9697 3.16328 63.9697 3.16328Z" fill="#231F20"/>
<path d="M129.319 20.4771C129.319 20.4771 128.403 24.8223 129.939 28.2784C131.281 26.5513 131.553 21.6259 133.876 22.1174C136.196 22.6102 134.839 31.2861 139.533 32.3975C140.363 21.4703 136.591 11.1482 129.319 20.4771Z" fill="#231F20"/>
<path d="M83.5163 25.9482C83.6119 29.4164 84.7196 32.2031 84.7196 32.2031C87.291 30.2653 85.6365 24.6036 86.8453 23.1792C88.054 21.7548 89.2892 22.073 89.5633 22.236C89.9635 21.1947 89.3088 19.1971 88.5048 18.7135C87.7021 18.23 86.4437 18.066 85.3269 18.9766C84.2119 19.8852 83.1234 20.9069 82.4746 21.1284C82.4746 21.1284 83.4207 22.4822 83.5163 25.9482" fill="#231F20"/>
<path d="M110.928 3.34321C110.953 2.57144 110.104 2.21873 110.104 2.21873C110.104 2.21873 108.888 1.64831 107.55 1.18114C107.55 1.18114 107.483 20.4664 107.246 27.3993C107.057 32.9614 110.337 31.9542 110.337 31.9542L110.656 14.8702C110.656 14.8702 110.887 4.54664 110.928 3.34321" fill="#231F20"/>
<path d="M100.375 24.1169C99.5262 26.1608 98.5186 27.7062 95.7902 29.5697C94.6989 28.3981 94.5067 24.6859 95.2197 23.3862C95.9322 22.0866 98.7741 20.9074 100.33 21.2232C100.57 21.2961 100.525 23.6796 100.375 24.1169ZM94.3938 31.9607C94.3975 31.9621 95.252 32.6848 96.1102 32.2532C97.1041 31.6795 98.9225 30.4237 100.514 28.1948C101.201 31.9074 103.624 31.7935 103.624 31.7935L103.943 13.8541C103.943 13.8541 104.127 7.88128 104.14 6.67738C104.154 5.29315 103.42 4.92876 103.42 4.92876C103.42 4.92876 101.338 3.67394 100.555 3.2063C100.555 3.2063 100.592 9.91021 100.487 18.2193C97.0945 18.0418 91.5465 19.7516 91.4113 23.7165C91.2379 28.8171 93.1696 30.8857 94.3938 31.9607" fill="#231F20"/>
<path d="M151.66 21.3082C151.824 21.3703 151.751 23.6973 151.598 24.2654C150.718 26.5942 149.804 27.5888 147.873 29.0315C146.625 28.2331 144.897 26.8498 145.61 25.5506C146.321 24.249 150.398 21.396 151.66 21.3082ZM148.274 32.3063C148.289 32.2933 148.246 32.3353 148.274 32.3063C149.104 31.5509 150.401 30.1844 151.654 28.1709C152.23 32.3105 154.859 31.5374 154.859 31.5374L154.908 11.9834C154.908 11.9834 154.986 8.00502 155 6.80205C155.013 5.59301 154.281 5.05343 154.281 5.05343C154.281 5.05343 154.089 4.79835 151.702 4.10273C151.702 4.10273 151.779 10.638 151.695 18.3043C148.488 18.9831 141.843 21.5824 141.693 25.9921C141.579 29.3263 144.609 31.1464 146.262 32.3717C146.275 32.3802 147.316 33.0753 148.274 32.3063" fill="#231F20"/>
<path d="M80.7672 26.4005C80.8177 24.7672 80.4626 22.8691 79.3503 20.5141C78.2367 18.1591 75.4941 17.7283 75.4941 17.7283C75.4941 23.6544 79.5206 23.3045 78.748 28.1762C78.748 28.1762 78.0574 28.8676 75.8602 28.7354C72.803 28.5513 73.6243 22.692 74.2289 20.6734C67.4257 22.4627 68.6868 34.1952 78.4539 32.2027C80.0414 30.7456 80.698 28.6555 80.7672 26.4005Z" fill="#231F20"/>
<path d="M114.749 28.9361C114.834 26.446 118.675 21.7328 122.643 21.2287C120.324 23.2525 119.049 29.4355 114.749 28.9361ZM112.727 28.212C112.727 28.212 112.317 29.7443 113.028 30.3002C115.361 32.2567 121.355 31.7512 123.123 25.8079C123.27 29.2028 124.232 33.0374 128.289 32.5179C128.529 32.4782 127.671 28.7459 126.715 25.1412C125.76 21.5356 125.283 20.0813 124.805 18.8377C124.327 17.5959 122.983 17.6464 122.978 17.6473C116.845 18.4168 114.163 23.4832 112.727 28.212Z" fill="#231F20"/>
</svg>
