<svg width="156" height="48" viewBox="0 0 156 48" fill="none" xmlns="http://www.w3.org/2000/svg">
<g clip-path="url(#clip0_1057_136)">
<path d="M0.40625 0.371094V26.2965C0.40625 26.9874 0.440794 28.041 0.509883 28.7146C1.01077 33.7408 3.34251 38.387 7.10783 41.8069C10.8904 45.2441 15.7784 47.144 20.9083 47.144C26.0381 47.144 30.9261 45.2441 34.7087 41.8069C38.4567 38.387 40.8057 33.7408 41.3066 28.7146C41.3757 28.0583 41.4103 27.0047 41.4103 26.2965V0.371094H0.40625Z" fill="#FFCD00"/>
<path d="M0.199219 0.132812V26.3173C0.199219 27.0255 0.233763 28.0791 0.302851 28.7527C0.803743 33.8307 3.17002 38.5287 6.95262 41.9832C10.7698 45.4549 15.7269 47.3721 20.8912 47.3721C26.0556 47.3721 31.0127 45.4549 34.8298 41.9832C38.6124 38.5287 40.9787 33.8307 41.4969 28.7527C41.5659 28.0791 41.6005 27.0255 41.6005 26.3173V0.132812H0.199219ZM40.9441 26.3173C40.9441 27.0082 40.9096 28.0446 40.8405 28.6836C40.3569 33.6062 38.0597 38.1487 34.3807 41.4995C31.3063 44.2976 27.4892 46.0421 23.4302 46.5603C23.1711 46.0421 22.7912 45.6621 22.7912 45.6621L19.2849 42.1386C18.6631 41.4477 18.3868 40.7396 18.2486 40.2214C18.2313 40.1178 18.1277 40.1696 18.1277 40.2387V46.5257C14.1378 45.973 10.407 44.2458 7.38442 41.4995C3.70546 38.1487 1.42554 33.6062 0.94192 28.6836C0.872831 28.0273 0.838287 26.991 0.838287 26.3173V0.771881H40.9441V26.3173Z" fill="black"/>
<path d="M23.6537 41.8968C23.6537 41.0504 22.7901 40.1868 22.7901 40.1868L19.4566 36.8533C18.7484 36.1451 18.4548 35.3506 18.3512 34.7979C18.3339 34.7288 18.2303 34.7288 18.213 34.7979C18.1439 35.2815 18.1094 35.7651 18.1094 36.266L18.1439 38.7532C18.1439 39.5996 19.0075 40.4632 19.0075 40.4632L22.4101 43.8658C22.9283 44.4185 23.2392 44.9885 23.4292 45.4894C23.5155 45.7657 23.6883 45.6966 23.6883 45.5757V45.1439L23.6537 41.8968Z" fill="black"/>
<path d="M24.7766 31.7058C24.103 31.9648 23.4639 32.3794 23.1185 32.0339C22.9458 31.8612 22.9803 31.6539 23.0494 31.3258C23.0494 31.3258 23.0494 31.3258 23.0494 31.3085V31.2912C23.1185 30.9976 23.2567 30.6522 23.3257 30.2204C23.4812 29.374 23.343 28.3722 22.4449 27.6295C22.4103 27.595 22.3412 27.595 22.3067 27.6468L22.1685 27.8023L21.184 28.7868C19.8886 30.0822 18.9732 31.7058 18.4896 33.4502C18.455 33.5712 18.455 33.7093 18.4723 33.8475C18.6105 34.6075 19.3013 35.2984 19.3013 35.2984L22.514 38.511C22.963 39.0119 23.2394 39.53 23.3948 39.9446C23.4812 40.2209 23.6539 40.1518 23.6539 40.0137V36.1447C23.6539 34.8493 24.1721 33.6057 25.0875 32.6903L26.2793 31.4985C26.2966 31.4812 26.2966 31.4467 26.262 31.4467C25.9684 31.2912 25.3984 31.464 24.7766 31.7058Z" fill="black"/>
<path d="M6.12424 30.8773C10.235 25.4884 18.6465 24.4866 22.2737 26.9565C22.36 27.0256 22.74 27.2847 23.1373 27.6646C23.1546 27.6819 23.1718 27.6992 23.1891 27.7165C24.2254 28.7528 23.9491 30.3591 23.8454 31.24C23.8454 31.2918 23.88 31.3263 23.9318 31.3263C24.4154 31.2054 26.1081 30.6527 26.6262 31.1709L27.2308 31.7754L27.5417 32.0863C27.5762 32.1209 27.6453 32.1209 27.6799 32.0863L32.1533 27.6128C32.1879 27.5783 32.1879 27.5092 32.1533 27.4747L31.8424 27.1638L31.2379 26.5592C30.737 26.0583 31.2725 24.3484 31.3934 23.8648C31.4106 23.813 31.3588 23.7611 31.307 23.7784C30.4261 23.8821 28.8371 24.1584 27.8008 23.1221C27.7835 23.1048 27.7662 23.0875 27.7489 23.0703C27.5417 22.863 27.5244 22.8285 27.3517 22.6212C22.6191 17.0941 25.3136 10.0298 31.0134 5.97087C31.1861 5.83269 31.3415 5.57361 30.8752 5.53906C30.8406 5.53906 30.7197 5.53906 30.7197 5.53906C16.9539 5.74633 5.84789 16.8696 5.64062 30.67C5.64062 30.6873 5.64062 30.8082 5.64062 30.86C5.64062 31.1191 5.89971 31.1536 6.12424 30.8773Z" fill="black"/>
<path d="M28.5613 23.0369C29.1312 23.3305 29.753 23.3478 30.3057 23.2442C30.7375 23.1578 31.083 23.0369 31.3766 22.9678H31.3939C31.3939 22.9678 31.3939 22.9678 31.4112 22.9678C31.7221 22.8987 31.9466 22.8642 32.1193 23.0369C32.4648 23.3823 32.0502 24.0214 31.7911 24.695C31.5493 25.3168 31.3766 25.8868 31.5321 26.1804C31.5493 26.1977 31.5666 26.1977 31.5839 26.1804L36.1437 21.6033C36.161 21.586 36.161 21.5688 36.161 21.5515V20.8779C36.161 20.8433 36.1264 20.8433 36.1264 20.8606C35.401 21.327 34.5374 21.6033 33.622 21.6033C32.6893 21.6033 31.9639 21.327 31.2384 20.8606C31.2212 20.8433 31.2039 20.8433 31.1866 20.8606L28.544 22.8469C28.4749 22.8987 28.4922 23.0024 28.5613 23.0369Z" fill="black"/>
<path d="M66.5934 7.80125V9.90845C66.5934 10.1848 66.4553 10.323 66.1789 10.323H62.0336C61.93 10.323 61.8954 10.3748 61.8954 10.4612V23.778C61.8954 24.0543 61.7573 24.1925 61.4809 24.1925H58.9074C58.631 24.1925 58.4928 24.0543 58.4928 23.778V10.4612C58.4928 10.3575 58.441 10.323 58.3546 10.323H54.313C54.0366 10.323 53.8984 10.1848 53.8984 9.90845V7.80125C53.8984 7.5249 54.0366 7.38672 54.313 7.38672H66.1789C66.4553 7.38672 66.5934 7.5249 66.5934 7.80125Z" fill="black"/>
<path d="M75.2644 20.4272C75.368 20.3063 75.4716 20.2545 75.5753 20.2545C75.6789 20.2545 75.7652 20.289 75.8343 20.3754L77.1988 21.6881C77.3025 21.7917 77.337 21.8781 77.337 21.9817C77.337 22.1026 77.3025 22.1889 77.2334 22.2753C76.6979 22.9316 76.0243 23.4498 75.1953 23.8298C74.3662 24.2098 73.4681 24.3998 72.5008 24.3998C71.0327 24.3998 69.8064 24.0198 68.8391 23.2771C67.8719 22.5171 67.2155 21.4981 66.8874 20.1854C66.6974 19.4772 66.5938 18.7345 66.5938 17.9573C66.5938 17.0246 66.6801 16.2473 66.8528 15.6083C67.181 14.4165 67.8201 13.4665 68.7873 12.7584C69.7545 12.0329 70.8945 11.6875 72.2417 11.6875C73.8135 11.6875 75.0571 12.1538 75.9725 13.0865C76.8879 14.0192 77.4925 15.3146 77.7688 17.0073C77.8379 17.5427 77.8724 18.1127 77.907 18.7691C77.907 19.0454 77.7688 19.1836 77.4925 19.1836H70.1518C70.0482 19.1836 70.0136 19.2354 70.0136 19.3218C70.0654 19.6499 70.1173 19.909 70.1864 20.0645C70.3418 20.5654 70.67 20.9454 71.1363 21.2044C71.6027 21.4635 72.1726 21.6017 72.8463 21.6017C73.8826 21.4808 74.6944 21.1181 75.2644 20.4272ZM70.9291 14.9347C70.5836 15.1765 70.3418 15.5219 70.2209 15.9883C70.1345 16.2992 70.1 16.4891 70.0827 16.5928C70.0654 16.6964 70.1 16.731 70.2036 16.731H74.2798C74.3662 16.731 74.4007 16.6964 74.4007 16.6273C74.4007 16.4546 74.3662 16.2646 74.2971 16.0746C74.1589 15.6083 73.8999 15.2456 73.5544 14.9692C73.209 14.6928 72.7599 14.5547 72.2072 14.5547C71.7063 14.5719 71.2745 14.6928 70.9291 14.9347Z" fill="black"/>
<path d="M80.4297 23.778V7.80125C80.4297 7.5249 80.5679 7.38672 80.8442 7.38672H83.4178C83.6941 7.38672 83.8323 7.5249 83.8323 7.80125V23.7952C83.8323 24.0716 83.6941 24.2098 83.4178 24.2098H80.8442C80.5506 24.1925 80.4297 24.0543 80.4297 23.778Z" fill="black"/>
<path d="M95.0908 20.4288C95.1945 20.3079 95.2981 20.2561 95.4017 20.2561C95.5054 20.2561 95.5917 20.2907 95.6608 20.377L97.0253 21.6897C97.1289 21.7933 97.1635 21.8797 97.1635 21.9833C97.1635 22.1042 97.1289 22.1906 97.0599 22.277C96.5244 22.9333 95.8508 23.4515 95.0217 23.8314C94.1927 24.2114 93.2945 24.4014 92.3273 24.4014C90.8592 24.4014 89.6328 24.0214 88.6656 23.2787C87.6984 22.536 87.0766 21.4824 86.7311 20.1698C86.5411 19.4616 86.4375 18.7189 86.4375 17.9417C86.4375 17.009 86.5239 16.2317 86.6966 15.5926C87.0248 14.4009 87.6638 13.4509 88.6311 12.7427C89.5983 12.0346 90.7383 11.6719 92.0855 11.6719C93.6572 11.6719 94.9008 12.1382 95.8163 13.0709C96.7317 14.0036 97.3362 15.299 97.6126 16.9917C97.6817 17.5271 97.7335 18.0971 97.7507 18.7534C97.7507 19.0298 97.6126 19.168 97.3362 19.168H89.961C89.8574 19.168 89.8228 19.2198 89.8228 19.3062C89.8747 19.6343 89.9265 19.8934 89.9956 20.0489C90.151 20.5497 90.4792 20.9297 90.9455 21.1888C91.4119 21.4479 91.9819 21.5861 92.6555 21.5861C93.7263 21.4824 94.5209 21.1197 95.0908 20.4288ZM90.7555 14.9363C90.4101 15.1781 90.1683 15.5236 90.0474 15.9899C89.961 16.3008 89.9265 16.4908 89.9092 16.5944C89.8919 16.6981 89.9265 16.7326 90.0301 16.7326H94.1063C94.1927 16.7326 94.2272 16.6981 94.2272 16.629C94.2272 16.4563 94.1927 16.2663 94.1236 16.0763C93.9854 15.6099 93.7263 15.2472 93.3809 14.9708C93.0355 14.6945 92.5864 14.5563 92.0337 14.5563C91.5328 14.5736 91.101 14.6945 90.7555 14.9363Z" fill="black"/>
<path d="M116.822 12.7923C117.53 13.5523 117.876 14.6059 117.876 15.9531V23.7774C117.876 24.0537 117.738 24.1919 117.461 24.1919H114.888C114.611 24.1919 114.473 24.0537 114.473 23.7774V16.6958C114.473 16.0395 114.3 15.5213 113.972 15.1413C113.627 14.7613 113.195 14.5713 112.625 14.5713C112.055 14.5713 111.606 14.7613 111.261 15.1413C110.915 15.5213 110.725 16.0395 110.725 16.6785V23.7774C110.725 24.0537 110.587 24.1919 110.311 24.1919H107.772C107.495 24.1919 107.357 24.0537 107.357 23.7774V16.6958C107.357 16.0567 107.184 15.5386 106.822 15.1413C106.476 14.7441 106.01 14.5541 105.457 14.5541C104.939 14.5541 104.524 14.7095 104.179 15.0031C103.834 15.314 103.626 15.7286 103.574 16.2813V23.7774C103.574 24.0537 103.436 24.1919 103.16 24.1919H100.586C100.31 24.1919 100.172 24.0537 100.172 23.7774V12.2569C100.172 11.9805 100.31 11.8423 100.586 11.8423H103.16C103.436 11.8423 103.574 11.9805 103.574 12.2569V13.0168C103.574 13.0859 103.592 13.1205 103.626 13.1377C103.661 13.155 103.695 13.1377 103.73 13.0687C104.386 12.1187 105.388 11.6523 106.753 11.6523C107.547 11.6523 108.255 11.8078 108.842 12.136C109.43 12.4641 109.896 12.9478 110.207 13.5696C110.224 13.6386 110.242 13.6559 110.293 13.6559C110.328 13.6559 110.362 13.6214 110.397 13.5696C110.76 12.9305 111.243 12.4469 111.831 12.136C112.418 11.8251 113.091 11.6523 113.851 11.6523C115.147 11.6696 116.114 12.0323 116.822 12.7923Z" fill="black"/>
<path d="M128.34 12.2058C129.152 12.5685 129.791 13.0521 130.24 13.6912C130.689 14.313 130.931 15.0039 130.931 15.7811V23.7954C130.931 24.0717 130.793 24.2099 130.516 24.2099H127.943C127.667 24.2099 127.528 24.0717 127.528 23.7954V23.2254C127.528 23.1563 127.511 23.1217 127.477 23.1217C127.442 23.1045 127.407 23.139 127.356 23.1908C126.613 24.0026 125.525 24.4172 124.074 24.4172C122.848 24.4172 121.846 24.1063 121.103 23.5017C120.36 22.8972 119.98 21.9991 119.98 20.8073C119.98 19.6155 120.412 18.6137 121.276 17.9401C122.139 17.2665 123.366 16.9211 124.972 16.9211H127.39C127.494 16.9211 127.528 16.8692 127.528 16.7829V16.282C127.528 15.7466 127.356 15.3493 127.045 15.0384C126.717 14.7448 126.233 14.5893 125.611 14.5893C125.128 14.5893 124.73 14.6757 124.419 14.8311C124.109 14.9866 123.901 15.2111 123.78 15.5047C123.677 15.7293 123.521 15.8329 123.297 15.8156L120.637 15.4875C120.516 15.4702 120.412 15.4357 120.343 15.3838C120.274 15.332 120.24 15.2457 120.257 15.1593C120.343 14.503 120.62 13.9157 121.086 13.3803C121.552 12.8448 122.174 12.4476 122.951 12.1367C123.729 11.8431 124.592 11.6876 125.525 11.6876C126.596 11.6531 127.528 11.8431 128.34 12.2058ZM126.82 21.3082C127.304 20.9455 127.546 20.4618 127.546 19.8919V19.0455C127.546 18.9419 127.494 18.9073 127.407 18.9073H125.698C124.972 18.9073 124.402 19.0455 123.988 19.3219C123.573 19.5982 123.366 19.9782 123.366 20.4791C123.366 20.9109 123.521 21.2564 123.832 21.4982C124.143 21.74 124.558 21.8782 125.076 21.8782C125.767 21.8609 126.354 21.6882 126.82 21.3082Z" fill="black"/>
<path d="M141.072 11.9828C141.262 12.0864 141.331 12.2419 141.279 12.4837L140.83 15.0054C140.812 15.1436 140.778 15.2299 140.692 15.2645C140.622 15.299 140.502 15.299 140.346 15.2645C140.087 15.1954 139.863 15.1608 139.655 15.1608C139.534 15.1608 139.362 15.1781 139.103 15.2127C138.533 15.2645 138.032 15.4717 137.634 15.8517C137.237 16.2317 137.03 16.7326 137.03 17.3544V23.7796C137.03 24.056 136.892 24.1942 136.615 24.1942H134.059C133.783 24.1942 133.645 24.056 133.645 23.7796V12.2591C133.645 11.9828 133.783 11.8446 134.059 11.8446H136.633C136.909 11.8446 137.047 11.9828 137.047 12.2591V13.0018C137.047 13.0709 137.064 13.1055 137.099 13.1227C137.133 13.14 137.168 13.1227 137.22 13.0709C137.859 12.1382 138.723 11.6719 139.811 11.6719C140.312 11.6891 140.726 11.7755 141.072 11.9828Z" fill="black"/>
<path d="M143.195 23.778V7.80125C143.195 7.5249 143.333 7.38672 143.61 7.38672H146.183C146.46 7.38672 146.598 7.5249 146.598 7.80125V15.7292C146.598 15.7982 146.615 15.8328 146.65 15.8328C146.684 15.8501 146.719 15.8155 146.753 15.781L149.949 12.0847C150.104 11.9293 150.277 11.8429 150.45 11.8429H153.351C153.472 11.8429 153.559 11.8602 153.61 11.8947C153.679 11.9293 153.714 11.9984 153.714 12.0675C153.714 12.1711 153.679 12.2575 153.61 12.3265L150.657 16.0228C150.605 16.0746 150.605 16.1437 150.64 16.2128L154.163 23.6743L154.215 23.8643C154.215 24.0543 154.094 24.1579 153.852 24.1579H151.14C150.916 24.1579 150.76 24.0543 150.657 23.847L148.325 18.3545C148.273 18.2509 148.204 18.2509 148.135 18.3372L146.65 20.2372C146.598 20.3063 146.581 20.3581 146.581 20.4099V23.778C146.581 24.0543 146.442 24.1925 146.166 24.1925H143.593C143.333 24.1925 143.195 24.0543 143.195 23.778Z" fill="black"/>
<path d="M55.8828 31.9258H60.4427V32.7721H56.9191V35.0175H60.2354V35.8638H56.9191V39.0764H55.8828V31.9258Z" fill="black"/>
<path d="M65.8488 35.7625V39.1132H64.7952V35.7625L61.9453 31.9453H63.1371L65.3134 34.8988L67.5069 31.9453H68.6987L65.8488 35.7625Z" fill="black"/>
<path d="M70.4766 31.9453H71.5302V38.2324H75.0019V39.1132H70.4766V31.9453Z" fill="black"/>
<path d="M81.427 39.1305L77.9208 35.7452V39.1132H76.8672V31.9453H77.9208V35.2097L81.2889 31.9453H82.5843L78.9571 35.3997L82.7397 39.096L81.427 39.1305Z" fill="black"/>
<path d="M84.5524 31.9805H89.1986V32.8268H85.5715V35.0895H88.9914V35.9358H85.5715V38.3021H89.1986V39.1484H84.5352L84.5524 31.9805Z" fill="black"/>
<path d="M92.4301 39.0074C91.9637 38.8519 91.5665 38.6446 91.2383 38.351L91.6183 37.5738C91.9637 37.8501 92.3264 38.0574 92.7064 38.1956C93.0864 38.3165 93.5009 38.3856 93.9673 38.3856C94.5027 38.3856 94.9172 38.2819 95.2109 38.0919C95.5045 37.9019 95.6427 37.6083 95.6427 37.2456C95.6427 36.9347 95.5045 36.7102 95.2454 36.5547C94.9691 36.3993 94.5373 36.2611 93.95 36.1229C93.38 36.002 92.9137 35.8638 92.551 35.7084C92.1883 35.5529 91.8946 35.3457 91.6874 35.0693C91.4801 34.793 91.3765 34.4648 91.3765 34.0502C91.3765 33.6357 91.4801 33.2557 91.7046 32.9448C91.9292 32.6339 92.2401 32.3749 92.6546 32.2021C93.0519 32.0294 93.5355 31.9258 94.0709 31.9258C94.5718 31.9258 95.0382 31.9949 95.4872 32.1503C95.9363 32.3058 96.299 32.513 96.5754 32.8067L96.2127 33.5839C95.8845 33.3075 95.539 33.1176 95.1936 32.9794C94.8482 32.8412 94.4682 32.7894 94.0882 32.7721C93.57 32.7721 93.1728 32.8757 92.8791 33.083C92.5855 33.2903 92.4301 33.5839 92.4301 33.9639C92.4301 34.2921 92.551 34.5339 92.8101 34.7066C93.0691 34.8793 93.4837 35.0175 94.0536 35.1557C94.6582 35.2938 95.1245 35.432 95.5045 35.5702C95.8672 35.7256 96.1608 35.9156 96.3854 36.1747C96.6099 36.4338 96.7135 36.762 96.7135 37.1592C96.7135 37.5738 96.6099 37.9365 96.3854 38.2474C96.1608 38.5583 95.8499 38.8001 95.4354 38.9728C95.0209 39.1455 94.5373 39.2319 93.9846 39.2319C93.3973 39.2319 92.8791 39.1455 92.4301 39.0074Z" fill="black"/>
<path d="M103.624 39.1657L100.1 35.7803V39.1484H99.0469V31.9805H100.1V35.2449L103.469 31.9805H104.764L101.137 35.4349L104.919 39.1311L103.624 39.1657Z" fill="black"/>
<path d="M107.406 38.8017C106.905 38.5081 106.525 38.0763 106.249 37.5236C105.972 36.9709 105.852 36.3318 105.852 35.5891C105.852 34.8291 105.99 34.1901 106.249 33.6374C106.508 33.0847 106.905 32.6701 107.406 32.3592C107.907 32.0656 108.494 31.9102 109.168 31.9102C109.859 31.9102 110.446 32.0656 110.947 32.3592C111.448 32.6529 111.828 33.0847 112.104 33.6374C112.363 34.1901 112.501 34.8464 112.501 35.5891C112.501 36.3318 112.363 36.9882 112.104 37.5409C111.845 38.0936 111.448 38.5081 110.947 38.819C110.446 39.1299 109.859 39.2681 109.168 39.2681C108.494 39.2508 107.907 39.0954 107.406 38.8017ZM110.86 37.6618C111.258 37.1782 111.465 36.4873 111.465 35.5718C111.465 34.6737 111.275 33.9828 110.878 33.4992C110.48 33.0156 109.928 32.7738 109.202 32.7738C108.494 32.7738 107.941 33.0156 107.544 33.4992C107.147 33.9828 106.94 34.6737 106.94 35.5718C106.94 36.47 107.13 37.1609 107.527 37.6618C107.924 38.1627 108.477 38.3872 109.185 38.3872C109.893 38.3872 110.446 38.1454 110.86 37.6618Z" fill="black"/>
<path d="M121.534 32.0134V39.1813H120.584L120.602 33.9997L118.46 38.0241H117.752L115.61 34.0342V39.164H114.66V31.9961H115.506L118.097 36.9532L120.688 31.9961L121.534 32.0134Z" fill="black"/>
<path d="M131.257 32.0329V39.2008H130.307L130.324 34.0192L128.183 38.0436H127.475L125.333 34.0537V39.1836H124.383V32.0156H125.229L127.82 36.9727L130.411 32.0156H131.257V32.0329Z" fill="black"/>
<path d="M134.559 38.5412C134.058 38.0403 133.816 37.3149 133.816 36.3649V32.0469H134.853V36.434C134.853 37.0903 135.008 37.5912 135.319 37.9194C135.63 38.2648 136.096 38.4203 136.718 38.4203C137.34 38.4203 137.806 38.2476 138.117 37.9194C138.428 37.574 138.601 37.0903 138.601 36.434V32.0469H139.637V36.3649C139.637 37.3149 139.378 38.0403 138.894 38.5412C138.411 39.0421 137.668 39.2839 136.718 39.2839C135.768 39.2839 135.043 39.0248 134.559 38.5412Z" fill="black"/>
<path d="M148.046 32.0469V39.2148H147.234L143.141 33.8086V39.2148H142.156V32.0469H142.951L147.044 37.4703V32.0469H148.046Z" fill="black"/>
<path d="M150.552 32.0469H155.199V32.8932H151.571V35.1559H154.991V36.0022H151.571V38.3685H155.199V39.2148H150.535L150.552 32.0469Z" fill="black"/>
</g>
<defs>
<clipPath id="clip0_1057_136">
<rect width="155" height="47.2392" fill="white" transform="translate(0.199219 0.128906)"/>
</clipPath>
</defs>
</svg>
