<svg width="155" height="48" viewBox="0 0 155 48" fill="none" xmlns="http://www.w3.org/2000/svg">
  <g clip-path="url(#clip0_3689_7595)">
    <path d="M50.3097 19.8338V6.38506H47.5587V4.42676H55.2637V6.38797H52.5127V19.8338H50.3097ZM55.8057 19.8338V8.8271H58.0059V10.2842C58.2408 9.83535 58.5746 9.44574 58.9821 9.14474C59.3884 8.82799 59.8891 8.65663 60.4042 8.65808L60.7568 8.69305V11.1264C60.3687 10.9695 59.9544 10.8875 59.5358 10.8845C59.3325 10.8755 59.1294 10.9075 58.9386 10.9786C58.7479 11.0497 58.5734 11.1584 58.4255 11.2983C58.2833 11.4413 58.1723 11.6122 58.0996 11.8003C58.0268 11.9885 57.9939 12.1896 58.003 12.3911V19.8338H55.8057ZM63.0124 21.7426L62.3625 21.5211L63.0852 19.4666C62.2149 18.9032 61.7797 17.7414 61.7797 15.9813V12.6796C61.772 12.1221 61.8297 11.5655 61.9516 11.0214C62.0543 10.5736 62.2412 10.1493 62.5024 9.77128C62.7616 9.40781 63.1182 9.12497 63.5311 8.95533C64.0237 8.75366 64.5522 8.6545 65.0843 8.66391C65.6611 8.6565 66.2327 8.7738 66.76 9.00778L67.4652 7.00285L68.2141 7.25347L67.4244 9.46239C68.0655 10.1035 68.386 11.172 68.386 12.6679V15.9813C68.386 17.2771 68.1306 18.2689 67.6196 18.9566C67.1087 19.6444 66.2636 19.9882 65.0843 19.9882C64.623 20.0003 64.1632 19.9303 63.7263 19.7813L63.0124 21.7426ZM63.974 16.8585L66.0139 11.106C65.9467 10.9147 65.8184 10.7509 65.6488 10.6398C65.4792 10.5286 65.2778 10.4764 65.0756 10.4911C64.9364 10.4888 64.7981 10.5125 64.6676 10.561C64.5617 10.6007 64.4632 10.6578 64.3762 10.73C64.2895 10.8102 64.2235 10.9102 64.1839 11.0214C64.1314 11.1497 64.0935 11.2633 64.0644 11.3595C64.0293 11.4978 64.0088 11.6394 64.0032 11.782C64.0032 11.9656 63.9857 12.1113 63.9828 12.2162C63.9799 12.3212 63.9828 12.4814 63.9828 12.6942L63.974 16.8585ZM65.0756 18.1815C65.2147 18.1837 65.3531 18.16 65.4836 18.1115C65.5894 18.0717 65.6879 18.0146 65.775 17.9425C65.8617 17.8623 65.9277 17.7623 65.9673 17.6511C66.0198 17.5229 66.0596 17.4102 66.0868 17.3131C66.1221 17.1786 66.1436 17.041 66.1509 16.9022C66.1509 16.7186 66.1684 16.5729 66.1713 16.468C66.1742 16.3631 66.1713 16.2028 66.1713 15.99V12.9302L64.3733 17.9425C64.5696 18.1068 64.8197 18.1929 65.0756 18.1844V18.1815ZM70.4842 19.8338V8.8271H72.6844V10.0132C73.0108 9.71592 73.2769 9.48764 73.4829 9.32833C73.7466 9.14109 74.0349 8.99106 74.3396 8.88247C74.7118 8.74074 75.1071 8.66958 75.5053 8.67265C75.7214 8.6672 75.9359 8.71077 76.1327 8.80011C76.3296 8.88944 76.5036 9.02222 76.6418 9.18846C76.9372 9.54241 77.0927 9.99235 77.0789 10.4532V19.8338H74.8933V11.581C74.9139 11.2917 74.8576 11.0022 74.7301 10.7417C74.6519 10.6446 74.5498 10.5695 74.4339 10.5235C74.318 10.4775 74.1921 10.4624 74.0686 10.4794C73.8753 10.4806 73.6841 10.5202 73.5062 10.596C73.3599 10.6526 73.2202 10.7249 73.0895 10.8116C72.9982 10.8777 72.866 10.9826 72.6931 11.1264V19.8338H70.4842ZM81.5958 19.9882C81.1361 19.9968 80.6867 19.8511 80.3194 19.5744C79.9434 19.2837 79.6525 18.8972 79.4773 18.4554C79.2793 17.9864 79.1309 17.4981 79.0343 16.9983C78.9331 16.4577 78.8727 15.9103 78.8536 15.3606C78.842 15.0906 78.842 14.431 78.8536 13.3819C78.8653 13.0031 78.8828 12.6611 78.9061 12.3561C78.9294 12.0511 78.9683 11.7315 79.0227 11.3974C79.0696 11.1012 79.1387 10.8089 79.2296 10.5231C79.3113 10.2616 79.4207 10.0096 79.5559 9.77128C79.6816 9.55087 79.8442 9.35372 80.0368 9.18846C80.2333 9.02648 80.4574 8.90113 80.6983 8.81836C80.9795 8.72216 81.2754 8.67581 81.5725 8.6814C81.8064 8.67959 82.0392 8.71299 82.2632 8.78048C82.4839 8.8486 82.6917 8.953 82.878 9.08938C83.0416 9.2044 83.1983 9.32895 83.3472 9.46239C83.4638 9.57118 83.6173 9.7266 83.8077 9.92865V4.43259H86.0078V19.8338H83.8077V18.8372C83.4959 19.1585 83.1443 19.4386 82.7615 19.6706C82.4099 19.8825 82.0063 19.9924 81.5958 19.9882ZM82.1466 18.1815C82.7144 18.1747 83.2755 18.0579 83.7989 17.8376V10.9165C83.294 10.6242 82.7182 10.477 82.1349 10.4911C81.939 10.4849 81.7462 10.541 81.5842 10.6514C81.4278 10.768 81.3109 10.9297 81.249 11.1147C81.1745 11.3188 81.1199 11.5296 81.0859 11.7442C81.0481 11.996 81.0276 12.2501 81.0247 12.5047C81.0013 13.7889 81.0013 14.8059 81.0247 15.5558C81.0282 15.884 81.0486 16.2118 81.0859 16.5379C81.1193 16.8189 81.1758 17.0967 81.2549 17.3684C81.3149 17.5946 81.4324 17.8014 81.5958 17.9687C81.6669 18.0386 81.7512 18.0937 81.8437 18.1307C81.9363 18.1677 82.0353 18.186 82.1349 18.1844L82.1466 18.1815ZM91.1542 19.9882C90.6773 19.9998 90.2038 19.9062 89.7671 19.7143C89.402 19.5529 89.0804 19.3072 88.8287 18.9974C88.5739 18.6569 88.3833 18.2728 88.2663 17.8638C88.1269 17.4124 88.0294 16.949 87.9749 16.4796C87.9205 16.0172 87.8874 15.4801 87.8758 14.8681C87.8583 14.3863 87.8583 13.9006 87.8758 13.411C87.8885 12.9004 87.9274 12.3907 87.9924 11.884C88.0501 11.4463 88.1526 11.0157 88.2983 10.5989C88.425 10.221 88.6229 9.87083 88.8812 9.56729C89.1408 9.28255 89.4617 9.06037 89.8195 8.91744C90.2503 8.74609 90.7111 8.66285 91.1746 8.67265C91.5959 8.66573 92.0154 8.72875 92.416 8.85916C92.7551 8.97055 93.0621 9.16254 93.3107 9.41867C93.5429 9.66687 93.739 9.94645 93.8935 10.2492C94.0694 10.6012 94.1922 10.9773 94.2578 11.3653C94.3369 11.7874 94.3933 12.2135 94.4268 12.6417C94.4579 13.0594 94.4734 13.5451 94.4734 14.0988V14.3581H90.0701V15.9201C90.0701 15.9201 90.0876 16.3689 90.0993 16.5874C90.1103 16.7921 90.1416 16.9951 90.1925 17.1936C90.2376 17.3726 90.3011 17.5464 90.382 17.7123C90.4529 17.8603 90.5653 17.9845 90.7055 18.0698C90.8457 18.1552 91.0076 18.198 91.1717 18.1931C91.3698 18.201 91.5662 18.1546 91.7399 18.0591C91.8924 17.9671 92.0094 17.8265 92.0722 17.6598C92.1423 17.4882 92.1931 17.3094 92.2237 17.1266C92.2562 16.9046 92.2737 16.6807 92.2761 16.4563V15.9813H94.4588V16.4213C94.4064 17.587 94.115 18.4748 93.5846 19.0849C93.0542 19.6949 92.2441 19.996 91.1542 19.9882ZM90.0701 13.2304H92.2528V12.5689C92.2494 12.3126 92.2319 12.0568 92.2004 11.8024C92.1702 11.5806 92.1194 11.3621 92.0488 11.1497C91.9913 10.9537 91.8754 10.7799 91.7166 10.6514C91.5537 10.5367 91.3593 10.4752 91.16 10.4752C90.9608 10.4752 90.7664 10.5367 90.6034 10.6514C90.4414 10.7873 90.3246 10.9692 90.2683 11.173C90.1983 11.3905 90.1475 11.6139 90.1168 11.8403C90.085 12.0995 90.0675 12.3602 90.0643 12.6213L90.0701 13.2304ZM96.1665 19.8338V4.42676H98.3667V19.8338H96.1665ZM102.327 19.9882C102.022 19.9875 101.722 19.9151 101.451 19.7769C101.18 19.6386 100.945 19.4385 100.765 19.1927C100.347 18.6892 100.12 18.0547 100.124 17.4005C100.117 16.9016 100.209 16.4063 100.395 15.9434C100.543 15.571 100.739 15.2193 100.978 14.8972C101.261 14.5692 101.602 14.2956 101.983 14.09C102.327 13.8752 102.683 13.6806 103.05 13.5072C103.291 13.4042 103.709 13.2352 104.306 13.0001L104.539 12.904V12.1288C104.561 11.6854 104.481 11.2428 104.306 10.8349C104.214 10.6988 104.092 10.5862 103.949 10.506C103.806 10.4259 103.646 10.3806 103.483 10.3738C103.319 10.367 103.156 10.3989 103.007 10.4668C102.858 10.5348 102.727 10.6369 102.624 10.765C102.438 11.094 102.337 11.465 102.333 11.8432V12.1346H100.133C100.093 11.2147 100.406 10.3143 101.007 9.61683C101.59 8.99127 102.395 8.67848 103.423 8.67848C103.871 8.65236 104.319 8.72259 104.738 8.88446C105.157 9.04632 105.536 9.29606 105.85 9.61683C106.456 10.3073 106.769 11.2058 106.724 12.123V17.077C106.703 18.0027 106.8 18.9274 107.016 19.828H104.821L104.53 18.1757C104.415 18.4049 104.318 18.5827 104.239 18.7089C104.143 18.8712 104.038 19.0278 103.924 19.1781C103.809 19.3421 103.669 19.4875 103.51 19.6094C103.352 19.7211 103.178 19.8094 102.994 19.8717C102.78 19.9484 102.554 19.9879 102.327 19.9882ZM103.429 18.1815C103.589 18.1801 103.746 18.1326 103.88 18.0445C104.002 17.9717 104.113 17.8814 104.21 17.7764C104.283 17.6909 104.375 17.5763 104.483 17.4325C104.496 17.4107 104.51 17.3902 104.527 17.3714V14.3319C104.436 14.3941 104.284 14.4912 104.073 14.6233C103.861 14.7554 103.692 14.8633 103.566 14.9468C103.408 15.0533 103.256 15.1681 103.111 15.2907C102.956 15.4125 102.817 15.5535 102.697 15.7103C102.59 15.8635 102.502 16.03 102.438 16.2057C102.364 16.4002 102.326 16.6067 102.327 16.8148C102.327 17.7278 102.694 18.1844 103.429 18.1844V18.1815ZM112.244 23.1268H111.574L110.868 23.1064C110.618 23.0995 110.368 23.0781 110.119 23.0423C109.925 23.0112 109.696 22.9713 109.432 22.9228C109.211 22.8861 108.995 22.8214 108.791 22.7304C108.62 22.6471 108.458 22.5497 108.304 22.439C108.156 22.3376 108.037 22.2002 107.957 22.0398C107.877 21.8755 107.838 21.6949 107.841 21.5123C107.829 20.9891 107.991 20.4768 108.301 20.0553C108.616 19.642 109.024 19.3094 109.493 19.0849C109.213 19.0135 108.95 18.8888 108.718 18.7177C108.621 18.6538 108.54 18.5675 108.483 18.4661C108.427 18.3646 108.395 18.251 108.391 18.1349C108.392 18.031 108.404 17.9274 108.426 17.826C108.448 17.7276 108.474 17.6303 108.505 17.5345C108.542 17.4336 108.588 17.3361 108.642 17.2431L108.793 16.9721C108.85 16.8774 108.913 16.7859 108.98 16.6982L109.155 16.4563C109.187 16.4126 109.248 16.3368 109.341 16.2232C109.435 16.1095 109.484 16.0483 109.496 16.0308C108.734 15.0851 108.346 13.8925 108.406 12.6796C108.394 11.9827 108.516 11.29 108.767 10.6397C108.987 10.0677 109.367 9.57166 109.863 9.21177C110.397 8.84595 111.034 8.65829 111.681 8.67557C112.044 8.66816 112.406 8.7264 112.748 8.8475C113.021 8.94424 113.273 9.09155 113.491 9.28171C113.707 9.48681 113.896 9.71894 114.053 9.97236C114.489 9.16417 115.107 8.73482 115.91 8.68431H116.082V10.4911H115.385C115.242 10.4997 115.1 10.5241 114.963 10.5639C114.824 10.5978 114.696 10.6671 114.593 10.765C114.715 11.0505 114.806 11.3485 114.864 11.6538C114.938 11.9918 114.977 12.3365 114.98 12.6825C114.994 13.3782 114.876 14.0703 114.633 14.7224C114.414 15.2963 114.027 15.7908 113.523 16.1416C112.979 16.5081 112.334 16.6946 111.678 16.6749L110.568 16.5466C110.543 16.5995 110.514 16.6502 110.481 16.6982C110.434 16.771 110.399 16.8293 110.373 16.8759C110.343 16.9317 110.319 16.9903 110.3 17.0508C110.278 17.1156 110.266 17.1834 110.265 17.2519C110.266 17.328 110.287 17.4026 110.325 17.4688C110.362 17.535 110.416 17.5907 110.481 17.6307C110.657 17.7464 110.856 17.8239 111.064 17.858C111.316 17.9066 111.558 17.9425 111.789 17.9658C112.02 17.9891 112.28 18.0076 112.567 18.0212C112.855 18.0367 113.049 18.0523 113.15 18.0678C113.476 18.1145 113.768 18.1679 114.024 18.2281C114.292 18.2929 114.553 18.3806 114.805 18.4904C115.047 18.5892 115.27 18.7292 115.464 18.9042C115.66 19.0763 115.818 19.2878 115.927 19.5249C116.045 19.801 116.103 20.099 116.096 20.3991C116.103 20.7684 116.031 21.1348 115.886 21.4745C115.758 21.7735 115.566 22.0411 115.324 22.2584C115.071 22.4758 114.784 22.6492 114.473 22.7712C114.136 22.9083 113.784 23.0061 113.424 23.0627C113.033 23.1145 112.638 23.1359 112.244 23.1268ZM112.244 21.5007H112.661C112.661 21.5007 112.926 21.4832 113.086 21.4657C113.227 21.4525 113.367 21.4252 113.503 21.3841C113.618 21.3466 113.731 21.2988 113.838 21.2413C113.938 21.1887 114.023 21.1103 114.083 21.014C114.141 20.9173 114.171 20.8064 114.17 20.6935C114.17 20.0796 113.587 19.7036 112.422 19.5657L110.606 19.35C110.359 19.5324 110.159 19.7712 110.023 20.0465C109.868 20.3411 109.787 20.6693 109.787 21.0024C109.786 21.0459 109.794 21.0892 109.81 21.1297C109.826 21.1702 109.85 21.2072 109.88 21.2384C109.962 21.3152 110.062 21.3677 110.172 21.3899C110.294 21.4249 110.421 21.4541 110.551 21.4774C110.703 21.5024 110.857 21.517 111.011 21.5211H111.909L112.244 21.5007ZM111.693 15.0167C112.61 15.0167 113.069 14.2396 113.069 12.6854C113.07 12.3929 113.049 12.1007 113.007 11.8112C112.967 11.5442 112.897 11.2823 112.8 11.0302C112.716 10.7926 112.567 10.5835 112.369 10.427C112.174 10.279 111.935 10.2019 111.69 10.2084C111.443 10.201 111.2 10.2781 111.002 10.427C110.806 10.5834 110.658 10.7927 110.577 11.0302C110.483 11.283 110.416 11.5447 110.376 11.8112C110.334 12.1007 110.313 12.3929 110.315 12.6854C110.317 14.2416 110.776 15.0196 111.693 15.0196V15.0167ZM48.7593 39.9617V30.5986H47.6578V28.955H48.7593V28.5325C48.7564 28.1375 48.7739 27.7426 48.8118 27.3493C48.8449 27.0295 48.9153 26.7145 49.0216 26.411C49.1017 26.1341 49.2507 25.882 49.4545 25.6782C49.6583 25.4744 49.9104 25.3255 50.1873 25.2453C50.5352 25.132 50.8997 25.0778 51.2655 25.0851C51.7198 25.0919 52.1733 25.1259 52.6235 25.1871V26.8394L52.2709 26.7928C52.1388 26.7706 52.0055 26.757 51.8716 26.752C51.7294 26.7337 51.5849 26.7571 51.4557 26.8191C51.3264 26.8812 51.2179 26.9793 51.1431 27.1017C51.0049 27.4262 50.9431 27.7781 50.9624 28.1303V28.955H52.6147V30.5986H50.9624V39.953L48.7593 39.9617ZM53.9115 42.7127V41.0604C54.2623 41.0675 54.6129 41.0382 54.9577 40.9729C55.1774 40.9382 55.381 40.8364 55.5405 40.6815C55.6664 40.5467 55.7539 40.3807 55.7941 40.2007C55.8363 39.9612 55.8549 39.7182 55.8494 39.4751L53.3549 28.9667H55.5551C56.4099 33.6837 56.8713 36.252 56.9393 36.6717C57.0598 35.8946 57.1958 35.0796 57.3473 34.2267C57.4988 33.3738 57.6708 32.4277 57.8631 31.3883C58.0574 30.3529 58.205 29.5456 58.3061 28.9667H60.5062L57.7524 40.5067C57.6917 40.8571 57.5562 41.1902 57.355 41.4834C57.1539 41.7766 56.8918 42.023 56.5867 42.2056C56.0039 42.5398 55.1811 42.7078 54.1184 42.7098L53.9115 42.7127ZM61.532 39.9617V24.5518H63.7322V39.9617H61.532ZM65.6934 39.9617V24.5518H67.8994V33.0203L70.6503 28.9405H72.8534L70.3851 32.7842L72.8534 39.9617H70.6532L69.0009 34.6376L67.8994 36.0947V39.9472L65.6934 39.9617ZM76.9332 40.1162C76.4563 40.1277 75.9828 40.0342 75.5461 39.8423C75.181 39.6809 74.8594 39.4352 74.6077 39.1254C74.3529 38.7849 74.1623 38.4007 74.0453 37.9918C73.9059 37.5403 73.8084 37.0769 73.7539 36.6076C73.6995 36.1452 73.6665 35.608 73.6548 34.996C73.6373 34.5142 73.6373 34.0285 73.6548 33.539C73.6675 33.0283 73.7064 32.5186 73.7714 32.012C73.8313 31.571 73.9368 31.1374 74.0861 30.7181C74.2128 30.3402 74.4106 29.99 74.6689 29.6865C74.9286 29.4017 75.2494 29.1796 75.6073 29.0366C76.0381 28.8653 76.4988 28.782 76.9624 28.7918C77.3836 28.7849 77.8031 28.8479 78.2038 28.9784C78.5429 29.0897 78.8499 29.2817 79.0984 29.5379C79.3306 29.7861 79.5268 30.0656 79.6812 30.3684C79.8541 30.7171 79.9748 31.0892 80.0397 31.4729C80.1188 31.895 80.1752 32.3211 80.2087 32.7492C80.2398 33.1669 80.2553 33.6526 80.2553 34.2063V34.4657H75.8404V36.0276C75.8404 36.0276 75.8579 36.4764 75.8696 36.695C75.8795 36.9055 75.9107 37.1144 75.9628 37.3186C76.0079 37.4976 76.0714 37.6714 76.1522 37.8373C76.2232 37.9853 76.3356 38.1095 76.4758 38.1948C76.616 38.2802 76.7779 38.323 76.942 38.3182C77.1428 38.3244 77.3415 38.275 77.516 38.1754C77.6685 38.0834 77.7855 37.9427 77.8483 37.7761C77.9184 37.6045 77.9692 37.4257 77.9998 37.2428C78.0323 37.0209 78.0498 36.7969 78.0522 36.5726V36.1092H80.2349V36.5493C80.1825 37.7149 79.8911 38.6028 79.3607 39.2128C78.8303 39.8228 78.0212 40.124 76.9332 40.1162ZM75.8492 33.3583H78.0318V32.6968C78.0284 32.4405 78.0109 32.1847 77.9794 31.9304C77.9492 31.7086 77.8984 31.49 77.8279 31.2776C77.7703 31.0816 77.6544 30.9078 77.4956 30.7793C77.3327 30.6647 77.1383 30.6031 76.939 30.6031C76.7398 30.6031 76.5454 30.6647 76.3824 30.7793C76.2204 30.9152 76.1036 31.0971 76.0473 31.3009C75.9773 31.5185 75.9266 31.7418 75.8958 31.9683C75.864 32.2274 75.8465 32.4882 75.8433 32.7492L75.8492 33.3583ZM84.7227 40.1162C84.3238 40.135 83.9251 40.0732 83.5506 39.9345C83.1761 39.7958 82.8334 39.583 82.5429 39.309C81.9748 38.7322 81.5852 38.0036 81.421 37.2108L83.0733 36.66C83.4618 37.7616 84.0126 38.3123 84.7256 38.3123C84.8741 38.3279 85.0242 38.3101 85.1649 38.2603C85.3056 38.2104 85.4334 38.1297 85.539 38.0242C85.6446 37.9186 85.7252 37.7908 85.7751 37.6501C85.8249 37.5094 85.8427 37.3593 85.8272 37.2108C85.8328 36.9713 85.7864 36.7335 85.6914 36.5137C85.5963 36.2938 85.4547 36.0972 85.2764 35.9373L83.0762 34.285C82.8607 34.1416 82.6544 33.9849 82.4584 33.8158C82.2749 33.6514 82.1053 33.4721 81.9514 33.2796C81.7795 33.0669 81.6472 32.8251 81.5609 32.5657C81.468 32.2837 81.4227 31.9882 81.4268 31.6914C81.4268 30.7511 81.726 30.0313 82.3244 29.532C83.0111 29.0043 83.8636 28.7388 84.7285 28.7831C85.1693 28.7768 85.6073 28.8539 86.0195 29.0104C86.3851 29.1506 86.7154 29.3694 86.987 29.6515C87.2452 29.9234 87.4622 30.2317 87.631 30.5666C87.8077 30.9235 87.9417 31.3001 88.0302 31.6885L86.3779 32.2393C86.3082 32.0473 86.2274 31.8595 86.1361 31.6768C86.0418 31.4986 85.9337 31.3281 85.8126 31.1669C85.6868 30.9914 85.5235 30.8461 85.3347 30.7414C85.147 30.6393 84.9363 30.5871 84.7227 30.5899C84.574 30.5762 84.4242 30.596 84.2841 30.6477C84.144 30.6994 84.0173 30.7818 83.9131 30.8887C83.8089 30.9957 83.7299 31.1246 83.682 31.266C83.634 31.4074 83.6182 31.5577 83.6357 31.706C83.6457 31.8939 83.701 32.0766 83.7969 32.2385C83.8928 32.4003 84.0265 32.5366 84.1865 32.6356L86.3867 34.2879C86.6097 34.4612 86.8209 34.6491 87.019 34.8503C87.2063 35.0452 87.3779 35.2548 87.5319 35.4769C87.7007 35.7196 87.8287 35.9884 87.9108 36.2724C87.9981 36.5765 88.0413 36.8915 88.039 37.2079C88.039 38.1482 87.7398 38.868 87.1414 39.3672C86.4508 39.8983 85.5926 40.1641 84.7227 40.1162ZM89.3678 39.9617V24.5518H91.568V33.0203L94.319 28.9405H96.5191L94.0508 32.7842L96.5191 39.9472H94.319L92.6695 34.6376L91.568 36.0947V39.9472L89.3678 39.9617ZM103.117 39.0846C102.606 39.7723 101.761 40.1162 100.581 40.1162C99.4022 40.1162 98.5571 39.7723 98.0461 39.0846C97.5352 38.3968 97.2797 37.4051 97.2797 36.1092V32.8075C97.2797 31.5117 97.5352 30.5199 98.0461 29.8322C98.5571 29.1445 99.4022 28.8006 100.581 28.8006C101.763 28.8006 102.608 29.1445 103.117 29.8322C103.626 30.5199 103.881 31.5117 103.883 32.8075V36.1092C103.881 37.4051 103.626 38.3968 103.117 39.0846ZM100.171 38.2424C100.435 38.3341 100.722 38.3341 100.986 38.2424C101.092 38.2029 101.191 38.1457 101.278 38.0734C101.365 37.9934 101.431 37.8934 101.47 37.782C101.523 37.6537 101.563 37.5411 101.59 37.4439C101.625 37.3056 101.645 37.164 101.651 37.0214C101.651 36.8378 101.668 36.6921 101.671 36.5872C101.674 36.4823 101.671 36.322 101.671 36.1092V32.8075V32.3296C101.671 32.3296 101.671 32.079 101.651 31.8954C101.645 31.7528 101.625 31.6112 101.59 31.4729C101.561 31.3767 101.52 31.263 101.47 31.1348C101.431 31.0234 101.365 30.9234 101.278 30.8434C101.191 30.771 101.092 30.7139 100.986 30.6744C100.722 30.5827 100.435 30.5827 100.171 30.6744C100.065 30.7138 99.966 30.7709 99.8791 30.8434C99.7922 30.9234 99.7261 31.0234 99.6868 31.1348C99.6343 31.263 99.5965 31.3767 99.5673 31.4729C99.5322 31.6112 99.5117 31.7528 99.5061 31.8954C99.5061 32.079 99.4886 32.2247 99.4857 32.3296C99.4828 32.4345 99.4857 32.5948 99.4857 32.8075V36.5872C99.4857 36.5872 99.4857 36.8378 99.5061 37.0214C99.5117 37.164 99.5322 37.3056 99.5673 37.4439C99.5965 37.5411 99.6363 37.6537 99.6868 37.782C99.7261 37.8934 99.7922 37.9934 99.8791 38.0734C99.9662 38.1448 100.065 38.201 100.171 38.2395V38.2424ZM105.687 39.9617V28.955H107.887V30.2023C108.664 29.2678 109.578 28.8006 110.629 28.8006C111.048 28.7635 111.465 28.8875 111.795 29.1474C112.076 29.4523 112.25 29.8397 112.293 30.2518C112.608 29.8183 113.004 29.4502 113.459 29.1678C113.944 28.9053 114.49 28.7775 115.041 28.7977C115.208 28.7956 115.375 28.8142 115.537 28.853C115.668 28.8856 115.796 28.9305 115.919 28.9871C116.033 29.0415 116.133 29.1224 116.21 29.2231C116.285 29.3161 116.354 29.4135 116.417 29.5146C116.482 29.6337 116.529 29.7626 116.554 29.8963C116.591 30.0634 116.618 30.2013 116.635 30.3101C116.653 30.4189 116.667 30.5792 116.679 30.7909C116.691 31.0027 116.697 31.1688 116.697 31.2893V39.9559H114.496V31.7963V31.3592C114.488 31.2384 114.47 31.1185 114.441 31.0008C114.419 30.8873 114.36 30.7845 114.272 30.7093C114.179 30.6344 114.062 30.5951 113.943 30.5986C113.713 30.6 113.485 30.6455 113.272 30.7327C113.09 30.8005 112.915 30.8875 112.751 30.992C112.628 31.0756 112.475 31.1912 112.29 31.3388V39.9559H110.09V31.4554C110.088 31.3499 110.078 31.2447 110.061 31.1406C110.05 31.0398 110.022 30.9414 109.98 30.8492C109.939 30.7803 109.883 30.7215 109.816 30.6773C109.735 30.6248 109.639 30.5984 109.542 30.6015C108.927 30.6324 108.342 30.8789 107.89 31.298V39.9588L105.687 39.9617ZM118.605 39.9617V28.955H120.806V30.2023C121.583 29.2678 122.497 28.8006 123.548 28.8006C123.966 28.7638 124.383 28.8878 124.713 29.1474C124.994 29.4523 125.169 29.8397 125.212 30.2518C125.527 29.8187 125.923 29.4506 126.377 29.1678C126.862 28.9054 127.409 28.7776 127.96 28.7977C128.127 28.7958 128.293 28.8144 128.455 28.853C128.587 28.8854 128.716 28.9303 128.84 28.9871C128.954 29.0419 129.054 29.1227 129.131 29.2231C129.206 29.316 129.275 29.4133 129.338 29.5146C129.403 29.6339 129.45 29.7627 129.475 29.8963C129.513 30.0624 129.539 30.1877 129.557 30.3101C129.574 30.4325 129.589 30.5782 129.6 30.7909C129.612 31.0037 129.618 31.1698 129.618 31.2893V39.9559H127.418V31.7963V31.3592C127.41 31.2383 127.391 31.1184 127.362 31.0008C127.348 30.8853 127.289 30.78 127.198 30.7071C127.107 30.6342 126.992 30.5995 126.876 30.6103C126.646 30.6115 126.418 30.6571 126.205 30.7443C126.023 30.8123 125.848 30.8993 125.684 31.0037C125.561 31.0853 125.407 31.2018 125.223 31.3505V39.9676H123.023V31.4554C123.021 31.3499 123.011 31.2447 122.994 31.1406C122.983 31.0397 122.955 30.9412 122.912 30.8492C122.872 30.7802 122.816 30.7213 122.749 30.6773C122.668 30.6247 122.572 30.5982 122.475 30.6015C121.86 30.6324 121.275 30.8789 120.823 31.298V39.9588L118.605 39.9617ZM133.127 40.1162C132.906 40.1245 132.687 40.0827 132.485 39.9938C132.283 39.905 132.104 39.7714 131.961 39.6033C131.664 39.2487 131.509 38.7975 131.524 38.3356V28.955H133.724V37.6654C133.72 37.768 133.736 37.8703 133.772 37.9664C133.808 38.0626 133.863 38.1504 133.934 38.2249C134.005 38.2965 134.09 38.3526 134.184 38.3897C134.277 38.4268 134.378 38.4441 134.479 38.4406C134.598 38.4404 134.716 38.4257 134.831 38.3968C134.951 38.3652 135.066 38.314 135.169 38.2453L135.432 38.0734C135.526 38.0059 135.617 37.9329 135.703 37.8548L135.921 37.6654V28.955H138.13V39.9617H135.93V38.7757L135.452 39.1895C135.353 39.2769 135.198 39.3906 134.992 39.5363C134.822 39.6612 134.639 39.7677 134.447 39.8539C134.258 39.9298 134.063 39.9902 133.864 40.0346C133.622 40.0902 133.375 40.1176 133.127 40.1162ZM140.039 39.9617V28.955H142.239V30.1411C142.567 29.8439 142.834 29.6156 143.04 29.4563C143.304 29.269 143.592 29.119 143.897 29.0104C144.269 28.8687 144.665 28.7975 145.063 28.8006C145.28 28.7938 145.497 28.8367 145.695 28.9261C145.894 29.0155 146.069 29.149 146.208 29.3164C146.504 29.6703 146.659 30.1203 146.645 30.5811V39.9617H144.445V31.706C144.466 31.4167 144.409 31.1272 144.282 30.8667C144.203 30.7699 144.101 30.6949 143.985 30.6489C143.87 30.603 143.744 30.5877 143.62 30.6044C143.427 30.6056 143.236 30.6452 143.058 30.721C142.911 30.7774 142.772 30.8497 142.641 30.9367C142.548 31.0027 142.416 31.1076 142.245 31.2514V39.9617H140.039ZM151.681 40.1162C151.203 40.1282 150.728 40.0347 150.291 39.8423C149.926 39.6809 149.604 39.4352 149.352 39.1254C149.098 38.7849 148.907 38.4007 148.79 37.9918C148.65 37.5403 148.553 37.077 148.499 36.6076C148.444 36.1452 148.411 35.608 148.399 34.996C148.384 34.5142 148.384 34.0285 148.399 33.539C148.413 33.0283 148.451 32.5187 148.516 32.012C148.576 31.5709 148.681 31.1372 148.831 30.7181C148.957 30.3401 149.155 29.9899 149.414 29.6865C149.673 29.4018 149.994 29.1797 150.352 29.0366C150.783 28.8652 151.244 28.782 151.707 28.7918C152.129 28.7847 152.55 28.8477 152.951 28.9784C153.29 29.0897 153.597 29.2817 153.846 29.5379C154.078 29.786 154.275 30.0656 154.429 30.3684C154.602 30.717 154.723 31.0891 154.787 31.4729C154.866 31.895 154.923 32.3211 154.956 32.7492C154.987 33.1669 155.003 33.6526 155.003 34.2063V34.4657H150.597V36.0276C150.597 36.0276 150.614 36.4764 150.626 36.695C150.636 36.9056 150.669 37.1146 150.722 37.3186C150.767 37.4977 150.83 37.6716 150.911 37.8373C150.982 37.9853 151.095 38.1095 151.235 38.1948C151.375 38.2802 151.537 38.323 151.701 38.3182C151.904 38.3284 152.106 38.282 152.284 38.1841C152.436 38.0918 152.553 37.9513 152.616 37.7849C152.686 37.6131 152.737 37.4343 152.768 37.2516C152.799 37.0295 152.815 36.8056 152.817 36.5813V36.118H155.003V36.558C154.95 37.7237 154.659 38.6115 154.129 39.2215C153.598 39.8316 152.782 40.1298 151.681 40.1162ZM150.597 33.3583H152.782V32.6968C152.779 32.4406 152.761 32.1847 152.73 31.9304C152.701 31.7087 152.651 31.4901 152.581 31.2776C152.524 31.0816 152.408 30.9078 152.249 30.7793C152.086 30.6647 151.892 30.6031 151.692 30.6031C151.493 30.6031 151.299 30.6647 151.136 30.7793C150.974 30.9153 150.857 31.0972 150.801 31.3009C150.731 31.5185 150.682 31.7418 150.652 31.9683C150.62 32.2274 150.602 32.4881 150.6 32.7492L150.597 33.3583Z" fill="black"/>
    <path d="M0 0V8.50636C0 23.3131 3.24635 35.5787 19.0905 47.346L19.3528 47.5412L19.6151 47.346C35.4563 35.5787 38.7026 23.3131 38.7026 8.50636V0H0ZM21.3985 20.6029H28.3312C31.1005 20.5635 33.8574 20.981 36.4908 21.8385H36.52C34.5558 30.4236 30.1089 37.4379 22.5321 43.8985C22.1591 43.0738 21.3985 40.8678 21.3985 36.6365V20.6029ZM10.386 20.6029H17.3187V36.6307C17.3187 40.8445 16.5523 43.0651 16.1793 43.8985C8.60253 37.4408 4.14973 30.4323 2.19143 21.8531C4.83385 20.9812 7.60378 20.5586 10.386 20.6029ZM9.34272 16.5232C6.56153 16.5516 3.79596 16.1042 1.16565 15.2001C0.967493 13.134 0.874241 10.9455 0.874241 8.50636V0.874241H15.6285C17.3187 5.12014 17.3187 8.03427 17.3187 11.7236V16.5232H9.34272ZM21.8356 44.4989C21.0313 45.1633 20.195 45.8219 19.3499 46.4542C18.5048 45.8219 17.6742 45.1662 16.8729 44.5047C17.2925 43.6771 18.193 41.3516 18.193 36.654V19.7258H10.386C7.53803 19.6907 4.70366 20.1239 1.99618 21.008C1.67854 19.4752 1.41336 17.8433 1.24725 16.156C3.86084 17.0097 6.59628 17.431 9.34564 17.4032H18.1959V11.7265C18.1959 8.17707 18.1959 5.10557 16.5727 0.880069H22.13C20.5068 5.10848 20.5068 8.16541 20.5068 11.7294V17.4032H29.3599C32.1096 17.4294 34.8451 17.0061 37.4583 16.1501C37.2805 17.8316 37.0299 19.4577 36.7123 20.9876C34.0067 20.1103 31.1752 19.684 28.3312 19.7258H20.5213V36.6453C20.5213 41.3341 21.4189 43.6625 21.8356 44.4901V44.4989ZM37.8255 0.874241V8.50636C37.8255 10.9455 37.7352 13.134 37.5516 15.2089C34.9168 16.1157 32.1462 16.5641 29.3599 16.5348H21.3839V11.7294C21.3839 8.0401 21.3839 5.12305 23.0741 0.880069L37.8255 0.874241Z" fill="black"/>
  </g>
  <defs>
    <clipPath id="clip0_3689_7595">
      <rect width="155" height="48" fill="white"/>
    </clipPath>
  </defs>
</svg>