<svg width="17" height="17" viewBox="0 0 21 21" fill="none" xmlns="http://www.w3.org/2000/svg">
  <path d="M20.0006 3.92375C19.265 4.25 18.4737 4.47063 17.6437 4.57C18.4906 4.06188 19.1412 3.25813 19.4481 2.3C18.655 2.77 17.7769 3.11188 16.8425 3.29563C16.0938 2.49813 15.0275 2 13.8475 2C11.5813 2 9.74438 3.83687 9.74438 6.10312C9.74438 6.425 9.78063 6.73812 9.85063 7.03812C6.44063 6.86687 3.41687 5.23312 1.39312 2.75062C1.04 3.35688 0.8375 4.06125 0.8375 4.81375C0.8375 6.2375 1.56188 7.49313 2.66313 8.22938C1.99063 8.20813 1.35813 8.02375 0.804375 7.71625C0.80375 7.73312 0.80375 7.75063 0.80375 7.76813C0.80375 9.75625 2.21813 11.4144 4.095 11.7912C3.75063 11.885 3.38813 11.935 3.01375 11.935C2.74938 11.935 2.4925 11.9094 2.24187 11.8612C2.76375 13.4912 4.27938 14.6775 6.075 14.7106C4.67063 15.8112 2.90125 16.4669 0.97875 16.4669C0.6475 16.4669 0.32125 16.4475 0 16.4094C1.81562 17.5738 3.9725 18.2531 6.29 18.2531C13.8375 18.2531 17.9644 12.0006 17.9644 6.57812C17.9644 6.4 17.9606 6.22312 17.9525 6.0475C18.7544 5.46875 19.45 4.74625 20 3.92375H20.0006Z" fill="white"/>
</svg>