<svg width="157" height="42" viewBox="0 0 157 42" fill="none" xmlns="http://www.w3.org/2000/svg">
  <g clip-path="url(#clip0_1061_103)">
    <path
      d="M55.8834 18.1571L52.5475 7.21079L52.5312 7.14617C52.5312 7.03847 52.5906 6.98438 52.7093 6.98438H54.7494C54.8681 6.98438 54.9438 7.03847 54.9763 7.14617L57.1299 15.0481C57.1404 15.0807 57.1567 15.0969 57.1787 15.0969C57.2007 15.0969 57.2165 15.0807 57.227 15.0481L59.3485 7.14617C59.3811 7.03847 59.4562 6.98438 59.5754 6.98438H61.5672C61.6318 6.98438 61.6806 7.00592 61.7127 7.049C61.7453 7.09208 61.7505 7.14617 61.729 7.21079L58.3447 18.1571C58.3122 18.2653 58.2418 18.3189 58.1341 18.3189H56.094C55.9858 18.3189 55.916 18.2648 55.8834 18.1571Z"
      fill="white" />
    <path
      d="M69.84 14.6776C69.829 14.8073 69.7591 14.8719 69.6293 14.8719H64.6258C64.5611 14.8719 64.5391 14.8992 64.5611 14.9528C64.5937 15.1687 64.6526 15.3846 64.7392 15.6004C65.0197 16.205 65.5917 16.5071 66.4557 16.5071C67.1465 16.4965 67.6917 16.2155 68.0914 15.6651C68.1344 15.6004 68.1828 15.5679 68.2369 15.5679C68.2694 15.5679 68.3068 15.5894 68.3503 15.6325L69.5164 16.7823C69.5705 16.8364 69.5973 16.8852 69.5973 16.9278C69.5973 16.9493 69.5757 16.9924 69.5326 17.0575C69.1765 17.5003 68.7175 17.843 68.1565 18.0857C67.595 18.3284 66.9799 18.45 66.3107 18.45C65.3821 18.45 64.5966 18.2394 63.9547 17.8186C63.3123 17.3974 62.8508 16.8096 62.5703 16.0537C62.3434 15.5143 62.2305 14.8068 62.2305 13.9323C62.2305 13.3387 62.3114 12.815 62.4732 12.3617C62.7216 11.5954 63.1557 10.9855 63.7766 10.5318C64.3974 10.0785 65.1341 9.85156 65.9871 9.85156C67.0665 9.85156 67.9329 10.1646 68.5858 10.7907C69.2387 11.4168 69.6356 12.2535 69.7758 13.3004C69.8404 13.7106 69.862 14.1697 69.8404 14.6766L69.84 14.6776ZM64.6583 12.783C64.6152 12.9232 64.5774 13.096 64.5449 13.3014C64.5449 13.3555 64.5717 13.3823 64.6258 13.3823H67.427C67.4916 13.3823 67.5131 13.3555 67.4916 13.3014C67.4375 12.9883 67.4107 12.8375 67.4107 12.8481C67.3135 12.524 67.1436 12.2732 66.9004 12.0951C66.6573 11.917 66.3581 11.828 66.0019 11.828C65.3218 11.828 64.8737 12.1463 64.6578 12.7834L64.6583 12.783Z"
      fill="white" />
    <path
      d="M72.9659 18.1251C72.4259 17.9202 72.0076 17.634 71.7108 17.2668C71.4135 16.9002 71.2656 16.4842 71.2656 16.0199V15.8581C71.2656 15.804 71.2843 15.7585 71.3221 15.7202C71.3599 15.6824 71.4054 15.6638 71.46 15.6638H73.2574C73.3115 15.6638 73.357 15.6829 73.3952 15.7202C73.4331 15.7581 73.4517 15.804 73.4517 15.8581V15.8744C73.4517 16.1118 73.5838 16.3143 73.8486 16.4818C74.1128 16.6494 74.445 16.7326 74.8442 16.7326C75.2109 16.7326 75.5081 16.6599 75.735 16.5139C75.9619 16.3684 76.0749 16.1874 76.0749 15.9716C76.0749 15.7772 75.9777 15.6317 75.7834 15.5345C75.589 15.4374 75.2707 15.3349 74.8279 15.2267C74.3205 15.097 73.9213 14.973 73.6298 14.8543C72.9386 14.6169 72.3881 14.3254 71.9784 13.9798C71.5681 13.6342 71.3628 13.1378 71.3628 12.4902C71.3628 11.6912 71.673 11.057 72.2938 10.5874C72.9147 10.1178 73.7375 9.88281 74.7633 9.88281C75.454 9.88281 76.0586 9.99339 76.577 10.2145C77.0954 10.4357 77.497 10.7463 77.7833 11.1456C78.069 11.5452 78.2121 11.9986 78.2121 12.5059C78.2121 12.56 78.193 12.606 78.1557 12.6438C78.1178 12.6816 78.0719 12.7003 78.0178 12.7003H76.285C76.2309 12.7003 76.185 12.6816 76.1471 12.6438C76.1093 12.606 76.0907 12.5605 76.0907 12.5059C76.0907 12.2685 75.9691 12.0689 75.7264 11.9066C75.4837 11.7449 75.162 11.664 74.7628 11.664C74.4067 11.664 74.1152 11.7286 73.8883 11.8583C73.6614 11.988 73.5484 12.1661 73.5484 12.3925C73.5484 12.6189 73.659 12.7707 73.8801 12.8784C74.1013 12.9865 74.4713 13.0995 74.9892 13.2182C75.1079 13.2508 75.2429 13.2857 75.3942 13.3235C75.5455 13.3613 75.7072 13.4073 75.88 13.4614C76.6464 13.6883 77.251 13.9798 77.6937 14.3359C78.136 14.6921 78.3577 15.2105 78.3577 15.8907C78.3577 16.6896 78.0417 17.3133 77.4104 17.7608C76.779 18.2089 75.9289 18.4329 74.86 18.4329C74.1367 18.4329 73.5049 18.33 72.9654 18.1251H72.9659Z"
      fill="white" />
    <path
      d="M84.7799 11.7718C84.7421 11.8096 84.6962 11.8283 84.6421 11.8283H83.0873C83.0333 11.8283 83.0064 11.8556 83.0064 11.9092V15.3422C83.0064 15.6984 83.0792 15.9631 83.2252 16.1359C83.3707 16.3087 83.6057 16.3948 83.9293 16.3948H84.4635C84.5176 16.3948 84.5631 16.414 84.6014 16.4513C84.6392 16.4891 84.6579 16.5351 84.6579 16.5892V18.1276C84.6579 18.2463 84.5933 18.3167 84.4635 18.3382C84.0102 18.3598 83.6862 18.3708 83.4918 18.3708C82.5957 18.3708 81.9266 18.2224 81.4838 17.9256C81.041 17.6288 80.8141 17.0702 80.8036 16.2498V11.9101C80.8036 11.856 80.7763 11.8292 80.7227 11.8292H79.7998C79.7457 11.8292 79.6998 11.8106 79.6619 11.7727C79.6241 11.7349 79.6055 11.6895 79.6055 11.6349V10.1936C79.6055 10.1395 79.6241 10.094 79.6619 10.0557C79.6998 10.0179 79.7452 9.99926 79.7998 9.99926H80.7227C80.7768 9.99926 80.8036 9.97245 80.8036 9.91836V7.99122C80.8036 7.93713 80.8223 7.89165 80.8601 7.85336C80.8979 7.81554 80.9434 7.79688 80.9979 7.79688H82.8116C82.8657 7.79688 82.9112 7.81602 82.9495 7.85336C82.9873 7.89117 83.006 7.93713 83.006 7.99122V9.91836C83.006 9.97245 83.0328 9.99926 83.0869 9.99926H84.6416C84.6957 9.99926 84.7412 10.0184 84.7795 10.0557C84.8173 10.0936 84.8359 10.1395 84.8359 10.1936V11.6349C84.8359 11.689 84.8168 11.7349 84.7795 11.7727L84.7799 11.7718Z"
      fill="white" />
    <path
      d="M91.4985 10.0403C91.5364 10.0781 91.555 10.1241 91.555 10.1782V11.7166C91.555 11.7707 91.5359 11.8167 91.4985 11.8545C91.4607 11.8923 91.4148 11.911 91.3607 11.911H89.7902C89.7361 11.911 89.7093 11.9383 89.7093 11.9919V18.129C89.7093 18.183 89.6901 18.229 89.6528 18.2668C89.615 18.3046 89.569 18.3233 89.5149 18.3233H87.6203C87.5662 18.3233 87.5203 18.3046 87.4825 18.2668C87.4447 18.229 87.426 18.1835 87.426 18.129V11.9919C87.426 11.9378 87.3987 11.911 87.3451 11.911H86.3897C86.3356 11.911 86.2896 11.8923 86.2518 11.8545C86.214 11.8167 86.1953 11.7712 86.1953 11.7166V10.1782C86.1953 10.1241 86.214 10.0786 86.2518 10.0403C86.2896 10.002 86.3351 9.98383 86.3897 9.98383H87.3451C87.3992 9.98383 87.426 9.95702 87.426 9.90293V9.5468C87.426 8.87761 87.5284 8.35681 87.7338 7.98441C87.9386 7.612 88.2708 7.34777 88.7294 7.19076C89.188 7.03424 89.8222 6.96674 90.6321 6.98828H91.2477C91.3018 6.98828 91.3473 7.00743 91.3856 7.04477C91.4234 7.08258 91.4421 7.12854 91.4421 7.18263V8.49419C91.4421 8.54828 91.4229 8.59424 91.3856 8.63205C91.3478 8.66987 91.3018 8.68854 91.2477 8.68854H90.7135C90.3354 8.69954 90.074 8.77757 89.928 8.92356C89.7825 9.06908 89.7093 9.33666 89.7093 9.72534V9.90341C89.7093 9.9575 89.7361 9.98431 89.7902 9.98431H91.3607C91.4148 9.98431 91.4603 10.0035 91.4985 10.0408V10.0403Z"
      fill="white" />
    <path
      d="M94.129 17.7371C93.4813 17.2622 93.0385 16.6146 92.8011 15.7941C92.6498 15.2867 92.5742 14.7363 92.5742 14.1422C92.5742 13.5056 92.6498 12.9331 92.8011 12.4257C93.0495 11.6268 93.4976 11.0007 94.1452 10.5474C94.7929 10.0941 95.5702 9.86719 96.4769 9.86719C97.3835 9.86719 98.1177 10.0912 98.7439 10.5392C99.37 10.9873 99.8127 11.6105 100.072 12.4094C100.244 12.9494 100.331 13.5161 100.331 14.1097C100.331 14.7032 100.255 15.2379 100.104 15.7453C99.8663 16.5873 99.426 17.2488 98.7841 17.7289C98.1417 18.2095 97.3672 18.4493 96.4606 18.4493C95.554 18.4493 94.7766 18.2119 94.129 17.7371ZM97.3677 16.1665C97.6161 15.9507 97.7942 15.6539 97.9019 15.2757C97.988 14.9301 98.0316 14.5525 98.0316 14.1422C98.0316 13.6889 97.9885 13.306 97.9019 12.9925C97.7832 12.6258 97.5993 12.3395 97.3514 12.1342C97.103 11.9293 96.8009 11.8264 96.4448 11.8264C96.0886 11.8264 95.7727 11.9293 95.53 12.1342C95.2873 12.3395 95.1117 12.6258 95.004 12.9925C94.9173 13.2514 94.8743 13.6348 94.8743 14.1422C94.8743 14.6496 94.9121 15.0062 94.9877 15.2757C95.0954 15.6539 95.2763 15.9507 95.53 16.1665C95.7837 16.3824 96.0939 16.4906 96.4611 16.4906C96.8282 16.4906 97.1192 16.3829 97.3677 16.1665Z"
      fill="white" />
    <path
      d="M102.267 18.2629C102.23 18.2251 102.211 18.1796 102.211 18.125V7.17872C102.211 7.12463 102.23 7.07915 102.267 7.04086C102.305 7.00304 102.351 6.98438 102.405 6.98438H104.3C104.354 6.98438 104.399 7.00352 104.438 7.04086C104.476 7.07867 104.494 7.12463 104.494 7.17872V18.125C104.494 18.1791 104.475 18.2251 104.438 18.2629C104.4 18.3007 104.354 18.3194 104.3 18.3194H102.405C102.351 18.3194 102.305 18.3007 102.267 18.2629Z"
      fill="white" />
    <path
      d="M111.787 7.04086C111.825 7.00304 111.871 6.98438 111.925 6.98438H113.82C113.874 6.98438 113.919 7.00352 113.958 7.04086C113.995 7.07867 114.014 7.12463 114.014 7.17872V18.125C114.014 18.1791 113.995 18.2251 113.958 18.2629C113.92 18.3007 113.874 18.3194 113.82 18.3194H111.925C111.871 18.3194 111.825 18.3007 111.787 18.2629C111.749 18.2251 111.731 18.1796 111.731 18.125V17.5908C111.731 17.5583 111.72 17.5396 111.698 17.5344C111.676 17.5291 111.655 17.5372 111.634 17.5588C111.18 18.1528 110.559 18.4496 109.772 18.4496C108.984 18.4496 108.365 18.239 107.821 17.8182C107.275 17.397 106.884 16.8197 106.646 16.0854C106.463 15.5244 106.371 14.871 106.371 14.1262C106.371 13.3814 106.468 12.6907 106.663 12.1182C106.911 11.4274 107.302 10.8793 107.837 10.4744C108.371 10.0694 109.032 9.86695 109.82 9.86695C110.609 9.86695 111.202 10.1369 111.634 10.6764C111.656 10.7089 111.677 10.7195 111.699 10.7089C111.72 10.6984 111.731 10.6764 111.731 10.6443V7.1792C111.731 7.1251 111.75 7.07963 111.788 7.04134L111.787 7.04086ZM111.715 14.1578C111.715 13.4345 111.596 12.8678 111.358 12.4575C111.11 12.0363 110.749 11.8262 110.273 11.8262C109.766 11.8262 109.382 12.0368 109.123 12.4575C108.853 12.8788 108.719 13.4508 108.719 14.1741C108.719 14.8217 108.832 15.3617 109.058 15.7934C109.328 16.2577 109.728 16.4899 110.256 16.4899C110.742 16.4899 111.12 16.2577 111.39 15.7934C111.606 15.3942 111.714 14.849 111.714 14.1578H111.715Z"
      fill="white" />
    <path
      d="M53.3906 34.0399V23.029C53.3906 22.9213 53.4447 22.8672 53.5524 22.8672H54.3781C54.4858 22.8672 54.5399 22.9213 54.5399 23.029V29.6519C54.5399 29.6735 54.5481 29.6897 54.5643 29.7007C54.5806 29.7118 54.5993 29.7065 54.6208 29.6845L58.0539 26.0896C58.108 26.0355 58.1726 26.0087 58.2482 26.0087H59.2199C59.2845 26.0087 59.3276 26.0303 59.3496 26.0733C59.3712 26.1164 59.3602 26.16 59.3171 26.2031L57.2444 28.5026C57.2229 28.5242 57.2172 28.551 57.2282 28.5835L59.7058 34.0083L59.7221 34.073C59.7221 34.1596 59.6737 34.2027 59.5765 34.2027H58.702C58.6154 34.2027 58.5565 34.1596 58.5239 34.073L56.435 29.3446C56.4135 29.3015 56.3866 29.2958 56.3541 29.3283L54.573 31.2067C54.5514 31.2282 54.5404 31.255 54.5404 31.2875V34.0404C54.5404 34.1486 54.4863 34.2022 54.3786 34.2022H53.5529C53.4447 34.2022 53.3911 34.1481 53.3911 34.0404L53.3906 34.0399Z"
      fill="white" />
    <path
      d="M62.3109 33.7364C61.7494 33.3372 61.3607 32.7867 61.1449 32.085C60.9936 31.5886 60.918 30.9247 60.918 30.0932C60.918 29.2618 60.9936 28.6036 61.1449 28.1177C61.3497 27.427 61.7332 26.8818 62.2946 26.4821C62.8556 26.0829 63.5358 25.8828 64.3347 25.8828C65.1337 25.8828 65.7622 26.0829 66.3184 26.4821C66.8741 26.8818 67.2547 27.4213 67.46 28.1015C67.6113 28.5658 67.6869 29.2297 67.6869 30.0932C67.6869 30.9568 67.6113 31.6317 67.46 32.085C67.2547 32.7867 66.8741 33.3372 66.3184 33.7364C65.7622 34.1361 65.0958 34.3357 64.3185 34.3357C63.5411 34.3357 62.8719 34.1361 62.3104 33.7364H62.3109ZM65.6468 32.9026C66.0135 32.6168 66.2619 32.2305 66.3916 31.7447C66.4888 31.356 66.5371 30.8112 66.5371 30.109C66.5371 29.4068 66.494 28.8516 66.4074 28.4734C66.2777 27.9875 66.0269 27.6017 65.6545 27.3155C65.282 27.0297 64.8311 26.8866 64.3022 26.8866C63.7733 26.8866 63.3252 27.0297 62.9581 27.3155C62.5909 27.6017 62.343 27.9875 62.2133 28.4734C62.1266 28.8516 62.0835 29.3963 62.0835 30.109C62.0835 30.8218 62.1266 31.367 62.2133 31.7447C62.332 32.2305 62.5775 32.6163 62.9499 32.9026C63.3223 33.1888 63.7785 33.3315 64.318 33.3315C64.8575 33.3315 65.2787 33.1883 65.6458 32.9026H65.6468Z"
      fill="white" />
    <path
      d="M70.0195 34.0399V23.029C70.0195 22.9213 70.0736 22.8672 70.1813 22.8672H71.007C71.1147 22.8672 71.1688 22.9213 71.1688 23.029V34.0399C71.1688 34.1481 71.1147 34.2017 71.007 34.2017H70.1813C70.0731 34.2017 70.0195 34.1476 70.0195 34.0399Z"
      fill="white" />
    <path
      d="M73.7461 34.0399V23.029C73.7461 22.9213 73.8002 22.8672 73.9079 22.8672H74.7336C74.8413 22.8672 74.8954 22.9213 74.8954 23.029V34.0399C74.8954 34.1481 74.8413 34.2017 74.7336 34.2017H73.9079C73.7997 34.2017 73.7461 34.1476 73.7461 34.0399Z"
      fill="white" />
    <path
      d="M83.8174 29.8654V30.3838C83.8174 30.492 83.7633 30.5456 83.6556 30.5456H78.4252C78.3821 30.5456 78.3605 30.5671 78.3605 30.6102C78.3821 31.2042 78.4146 31.5872 78.4577 31.76C78.5764 32.2458 78.8301 32.6293 79.2188 32.9098C79.6075 33.1907 80.1039 33.331 80.7084 33.331C81.1617 33.331 81.561 33.2286 81.9066 33.0232C82.2517 32.8183 82.5221 32.5268 82.716 32.1487C82.7806 32.0515 82.8562 32.03 82.9429 32.084L83.5743 32.4564C83.6604 32.5105 83.682 32.5862 83.6389 32.6833C83.3689 33.2017 82.964 33.6091 82.4245 33.9059C81.8845 34.2031 81.2637 34.351 80.5624 34.351C79.7956 34.34 79.1537 34.1567 78.6353 33.8006C78.1169 33.4444 77.7445 32.948 77.5181 32.3109C77.3237 31.7925 77.2266 31.0477 77.2266 30.0765C77.2266 29.6232 77.2347 29.2536 77.251 28.9674C77.2673 28.6816 77.3075 28.4251 77.3726 28.1982C77.5559 27.4964 77.9254 26.9349 78.4816 26.5142C79.0374 26.093 79.7094 25.8828 80.4978 25.8828C81.4801 25.8828 82.2359 26.1312 82.7648 26.6276C83.2938 27.1245 83.6231 27.8258 83.7523 28.7328C83.7954 29.0354 83.8169 29.413 83.8169 29.8663L83.8174 29.8654ZM79.1781 27.2987C78.8273 27.574 78.5975 27.944 78.4898 28.4078C78.4252 28.6347 78.3816 29.0019 78.3601 29.5088C78.3601 29.5519 78.3816 29.5734 78.4247 29.5734H82.6188C82.6619 29.5734 82.6835 29.5519 82.6835 29.5088C82.6614 29.0229 82.6294 28.6778 82.5863 28.4724C82.4676 27.9866 82.2273 27.6008 81.8659 27.3145C81.504 27.0288 81.0483 26.8856 80.4978 26.8856C79.9473 26.8856 79.529 27.0235 79.1781 27.2987Z"
      fill="white" />
    <path
      d="M86.0977 34.0399V23.029C86.0977 22.9213 86.1513 22.8672 86.2594 22.8672H87.0852C87.1929 22.8672 87.247 22.9213 87.247 23.029V29.6519C87.247 29.6735 87.2551 29.6897 87.2714 29.7007C87.2876 29.7118 87.3063 29.7065 87.3278 29.6845L90.7609 26.0896C90.815 26.0355 90.8796 26.0087 90.9552 26.0087H91.9269C91.9916 26.0087 92.0347 26.0303 92.0567 26.0733C92.0782 26.1164 92.0672 26.16 92.0241 26.2031L89.9515 28.5026C89.9294 28.5242 89.9242 28.551 89.9352 28.5835L92.4128 34.0083L92.4291 34.073C92.4291 34.1596 92.3807 34.2027 92.2836 34.2027H91.409C91.3224 34.2027 91.2635 34.1596 91.231 34.073L89.142 29.3446C89.12 29.3015 89.0932 29.2958 89.0611 29.3283L87.28 31.2067C87.2584 31.2282 87.2474 31.255 87.2474 31.2875V34.0404C87.2474 34.1486 87.1933 34.2022 87.0856 34.2022H86.2599C86.1517 34.2022 86.0981 34.1481 86.0981 34.0404L86.0977 34.0399Z"
      fill="white" />
    <path
      d="M97.7262 26.9664H95.8962C95.8532 26.9664 95.8316 26.988 95.8316 27.031V31.8077C95.8316 32.3261 95.9475 32.6904 96.1796 32.9005C96.4118 33.1112 96.776 33.2165 97.2724 33.2165H97.6774C97.7851 33.2165 97.8392 33.2706 97.8392 33.3783V34.0422C97.8392 34.1504 97.7851 34.204 97.6774 34.204C97.5477 34.2145 97.3481 34.2202 97.0781 34.2202C96.3007 34.2202 95.7124 34.0747 95.3132 33.7832C94.9135 33.4917 94.7139 32.9522 94.7139 32.1639V27.0306C94.7139 26.9875 94.6924 26.9659 94.6493 26.9659H93.6618C93.5536 26.9659 93.5 26.9118 93.5 26.8041V26.1728C93.5 26.0651 93.5541 26.011 93.6618 26.011H94.6493C94.6924 26.011 94.7139 25.9894 94.7139 25.9464V24.068C94.7139 23.9603 94.768 23.9062 94.8757 23.9062H95.6694C95.7771 23.9062 95.8311 23.9603 95.8311 24.068V25.9464C95.8311 25.9894 95.8527 26.011 95.8958 26.011H97.7257C97.8334 26.011 97.8875 26.0651 97.8875 26.1728V26.8041C97.8875 26.9123 97.8334 26.9659 97.7257 26.9659L97.7262 26.9664Z"
      fill="white" />
    <path
      d="M100.236 24.2652C100.063 24.0929 99.9766 23.8765 99.9766 23.6175C99.9766 23.3586 100.063 23.1293 100.236 22.9618C100.408 22.7947 100.624 22.7109 100.883 22.7109C101.142 22.7109 101.358 22.7947 101.531 22.9618C101.704 23.1293 101.79 23.3481 101.79 23.6175C101.79 23.887 101.703 24.0929 101.531 24.2652C101.358 24.438 101.142 24.5242 100.883 24.5242C100.624 24.5242 100.408 24.438 100.236 24.2652ZM100.268 34.0297V26.1598C100.268 26.0521 100.322 25.998 100.429 25.998H101.255C101.363 25.998 101.417 26.0521 101.417 26.1598V34.0297C101.417 34.1379 101.363 34.1915 101.255 34.1915H100.429C100.321 34.1915 100.268 34.1374 100.268 34.0297Z"
      fill="white" />
    <path
      d="M106.129 34.072L103.473 26.1859L103.457 26.1213C103.457 26.0456 103.505 26.0078 103.603 26.0078H104.525C104.623 26.0078 104.687 26.0509 104.72 26.1375L106.744 32.4852C106.755 32.5068 106.771 32.5178 106.792 32.5178C106.814 32.5178 106.83 32.5073 106.841 32.4852L108.866 26.1375C108.898 26.0514 108.963 26.0078 109.06 26.0078L109.983 26.0241C110.102 26.0241 110.145 26.0834 110.113 26.2022L107.457 34.072C107.424 34.1587 107.36 34.2018 107.262 34.2018H106.323C106.226 34.2018 106.162 34.1587 106.129 34.072Z"
      fill="white" />
    <path
      d="M115.441 26.9664H113.611C113.568 26.9664 113.546 26.988 113.546 27.031V31.8077C113.546 32.3261 113.662 32.6904 113.894 32.9005C114.127 33.1112 114.491 33.2165 114.987 33.2165H115.392C115.5 33.2165 115.554 33.2706 115.554 33.3783V34.0422C115.554 34.1504 115.5 34.204 115.392 34.204C115.263 34.2145 115.063 34.2202 114.793 34.2202C114.016 34.2202 113.427 34.0747 113.028 33.7832C112.628 33.4917 112.429 32.9522 112.429 32.1639V27.0306C112.429 26.9875 112.407 26.9659 112.364 26.9659H111.377C111.268 26.9659 111.215 26.9118 111.215 26.8041V26.1728C111.215 26.0651 111.269 26.011 111.377 26.011H112.364C112.407 26.011 112.429 25.9894 112.429 25.9464V24.068C112.429 23.9603 112.483 23.9062 112.591 23.9062H113.384C113.492 23.9062 113.546 23.9603 113.546 24.068V25.9464C113.546 25.9894 113.568 26.011 113.611 26.011H115.441C115.548 26.011 115.602 26.0651 115.602 26.1728V26.8041C115.602 26.9123 115.548 26.9659 115.441 26.9659L115.441 26.9664Z"
      fill="white" />
    <path
      d="M122.046 26.1403C122.132 26.1834 122.165 26.2537 122.143 26.3509L121.965 27.1446C121.933 27.2527 121.862 27.2848 121.755 27.2417C121.571 27.1661 121.36 27.1283 121.123 27.1283L120.913 27.1446C120.351 27.1661 119.887 27.3738 119.52 27.7678C119.153 28.1617 118.97 28.661 118.97 29.2656V34.0423C118.97 34.1504 118.916 34.2041 118.808 34.2041H117.982C117.874 34.2041 117.82 34.15 117.82 34.0423V26.1724C117.82 26.0647 117.874 26.0106 117.982 26.0106H118.808C118.916 26.0106 118.97 26.0647 118.97 26.1724V27.1604C118.97 27.1929 118.978 27.2116 118.994 27.2168C119.01 27.2226 119.024 27.2144 119.035 27.1924C119.262 26.7932 119.55 26.4826 119.901 26.2614C120.252 26.0403 120.659 25.9297 121.124 25.9297C121.48 25.9297 121.788 26.0001 122.047 26.1403H122.046Z"
      fill="white" />
    <path
      d="M128.768 26.6286C129.297 27.1255 129.561 27.7836 129.561 28.6041V34.0447C129.561 34.1529 129.507 34.2065 129.4 34.2065H128.574C128.466 34.2065 128.412 34.1524 128.412 34.0447V33.3808C128.412 33.3592 128.404 33.343 128.388 33.3319C128.371 33.3214 128.353 33.3267 128.331 33.3482C128.061 33.6723 127.71 33.9178 127.279 34.0849C126.847 34.252 126.366 34.3357 125.837 34.3357C125.07 34.3357 124.429 34.1414 123.91 33.7527C123.392 33.364 123.133 32.7705 123.133 31.9716C123.133 31.1726 123.427 30.5221 124.015 30.0525C124.604 29.583 125.421 29.3479 126.469 29.3479H128.347C128.39 29.3479 128.412 29.3264 128.412 29.2833V28.6682C128.412 28.1177 128.258 27.6831 127.95 27.3648C127.642 27.0465 127.165 26.8871 126.517 26.8871C125.999 26.8871 125.578 26.9871 125.254 27.1867C124.93 27.3868 124.73 27.6644 124.655 28.0206C124.622 28.1288 124.557 28.1771 124.46 28.1661L123.586 28.0526C123.467 28.0311 123.418 27.988 123.44 27.9229C123.526 27.3184 123.85 26.8272 124.412 26.4496C124.973 26.0719 125.675 25.8828 126.517 25.8828C127.489 25.8828 128.239 26.1312 128.768 26.6276V26.6286ZM127.715 32.871C128.179 32.5527 128.412 32.1238 128.412 31.5838V30.3206C128.412 30.2775 128.39 30.256 128.347 30.256H126.647C125.935 30.256 125.362 30.4015 124.93 30.693C124.498 30.9845 124.283 31.3895 124.283 31.9074C124.283 32.3827 124.447 32.7413 124.777 32.9844C125.106 33.2271 125.535 33.3487 126.064 33.3487C126.7 33.3487 127.251 33.1898 127.715 32.871Z"
      fill="white" />
    <path
      d="M133.98 24.2733C133.764 24.538 133.656 24.9885 133.656 25.6256V25.9496C133.656 25.9927 133.677 26.0143 133.72 26.0143H135.534C135.642 26.0143 135.696 26.0684 135.696 26.1761V26.9046C135.696 27.0128 135.642 27.0664 135.534 27.0664H133.72C133.677 27.0664 133.656 27.0879 133.656 27.131V34.0455C133.656 34.1537 133.601 34.2073 133.494 34.2073H132.684C132.576 34.2073 132.523 34.1532 132.523 34.0455V27.131C132.523 27.0879 132.5 27.0664 132.458 27.0664H131.373C131.265 27.0664 131.211 27.0123 131.211 26.9046V26.1761C131.211 26.0684 131.265 26.0143 131.373 26.0143H132.458C132.501 26.0143 132.523 25.9927 132.523 25.9496V25.561C132.523 24.8918 132.598 24.3652 132.749 23.9823C132.901 23.5994 133.162 23.3184 133.535 23.1403C133.907 22.9622 134.428 22.8732 135.097 22.8732H135.567C135.675 22.8732 135.729 22.9273 135.729 23.035V23.7152C135.729 23.8234 135.675 23.877 135.567 23.877H135.194C134.6 23.877 134.196 24.0091 133.98 24.2738L133.98 24.2733ZM137.85 24.2652C137.677 24.0929 137.591 23.8765 137.591 23.6175C137.591 23.3586 137.677 23.1293 137.85 22.9618C138.022 22.7947 138.238 22.7109 138.497 22.7109C138.756 22.7109 138.972 22.7947 139.145 22.9618C139.317 23.1293 139.404 23.3481 139.404 23.6175C139.404 23.887 139.317 24.0929 139.145 24.2652C138.972 24.438 138.756 24.5242 138.497 24.5242C138.238 24.5242 138.022 24.438 137.85 24.2652ZM137.882 34.0297V26.1598C137.882 26.0521 137.936 25.998 138.044 25.998H138.87C138.977 25.998 139.032 26.0521 139.032 26.1598V34.0297C139.032 34.1379 138.977 34.1915 138.87 34.1915H138.044C137.936 34.1915 137.882 34.1374 137.882 34.0297Z"
      fill="white" />
    <path
      d="M141.867 34.0399V23.029C141.867 22.9213 141.921 22.8672 142.029 22.8672H142.855C142.962 22.8672 143.016 22.9213 143.016 23.029V29.6519C143.016 29.6735 143.025 29.6897 143.041 29.7007C143.057 29.7118 143.076 29.7065 143.097 29.6845L146.53 26.0896C146.585 26.0355 146.649 26.0087 146.725 26.0087H147.696C147.761 26.0087 147.804 26.0303 147.826 26.0733C147.848 26.1164 147.837 26.16 147.794 26.2031L145.721 28.5026C145.699 28.5242 145.694 28.551 145.705 28.5835L148.182 34.0083L148.199 34.073C148.199 34.1596 148.15 34.2027 148.053 34.2027H147.179C147.092 34.2027 147.033 34.1596 147 34.073L144.912 29.3446C144.89 29.3015 144.863 29.2958 144.831 29.3283L143.05 31.2067C143.028 31.2282 143.017 31.255 143.017 31.2875V34.0404C143.017 34.1486 142.963 34.2022 142.855 34.2022H142.029C141.921 34.2022 141.868 34.1481 141.868 34.0404L141.867 34.0399Z"
      fill="white" />
    <path
      d="M149.98 34.0399V23.029C149.98 22.9213 150.034 22.8672 150.142 22.8672H150.968C151.076 22.8672 151.13 22.9213 151.13 23.029V29.6519C151.13 29.6735 151.138 29.6897 151.154 29.7007C151.17 29.7118 151.189 29.7065 151.211 29.6845L154.644 26.0896C154.698 26.0355 154.762 26.0087 154.838 26.0087H155.81C155.874 26.0087 155.917 26.0303 155.939 26.0733C155.961 26.1164 155.95 26.16 155.907 26.2031L153.834 28.5026C153.812 28.5242 153.807 28.551 153.818 28.5835L156.296 34.0083L156.312 34.073C156.312 34.1596 156.263 34.2027 156.166 34.2027H155.292C155.205 34.2027 155.146 34.1596 155.114 34.073L153.025 29.3446C153.003 29.3015 152.976 29.2958 152.944 29.3283L151.163 31.2067C151.141 31.2282 151.13 31.255 151.13 31.2875V34.0404C151.13 34.1486 151.076 34.2022 150.968 34.2022H150.143C150.035 34.2022 149.981 34.1481 149.981 34.0404L149.98 34.0399Z"
      fill="white" />
    <path
      d="M34.1374 5.6573C30.6335 2.65697 26.0823 0.84375 21.1074 0.84375H20.8829C9.81355 0.84375 0.839844 9.81746 0.839844 20.8868V21.1113C0.839844 22.4449 0.970522 23.7474 1.21895 25.0082L34.1374 5.6573Z"
      fill="white" />
    <path
      d="M36.5111 8.0625L36.5097 8.06346C34.2647 9.90923 32.9766 12.6324 32.9766 15.5341V15.6471C32.9766 17.8959 33.7659 20.0854 35.199 21.8129C36.614 23.5184 38.5828 24.6945 40.7426 25.1249L40.7474 25.1258C41.0116 23.8276 41.1514 22.484 41.1514 21.1078V20.8833C41.1514 16.0061 39.4071 11.5377 36.5111 8.0625Z"
      fill="white" />
    <path
      d="M2.19922 28.3828C5.10956 35.8587 12.3758 41.1582 20.8814 41.1582H21.1059C29.6115 41.1582 36.8777 35.8587 39.7881 28.3828H2.19922Z"
      fill="white" />
  </g>
  <defs>
    <clipPath id="clip0_1061_103">
      <rect width="156" height="40.6873" fill="white" transform="translate(0.5 0.65625)" />
    </clipPath>
  </defs>
</svg>