<svg width="156" height="53" viewBox="0 0 156 53" fill="none" xmlns="http://www.w3.org/2000/svg">
<g clip-path="url(#clip0_1057_109)">
<path d="M0.699219 0.664062V29.2854C0.699219 30.0411 0.737005 31.2106 0.808799 31.9456C1.93672 43.3268 11.5723 52.218 23.2898 52.218C35.0074 52.218 44.643 43.3268 45.7709 31.9456C45.8446 31.2087 45.8824 30.0392 45.8824 29.2854V0.664062H0.699219Z" fill="#E40017"/>
<path d="M34.1402 40.917C34.1402 40.917 34.6938 24.5611 41.4538 12.0557C38.9126 13.5898 37.0328 14.183 35.8349 14.952C35.1472 15.4243 34.7845 16.0138 34.7845 16.8451C34.7845 18.1109 35.8463 18.8364 36.0163 19.1992C36.0957 19.3673 35.9559 19.8756 35.68 20.6615C35.4722 18.8875 33.6887 18.0921 32.3907 18.6059C32.0563 18.7382 30.7999 19.2597 30.6242 19.3314C30.4485 19.4032 30.3446 19.4996 30.2766 19.6583C30.2142 19.8189 30.218 19.9606 30.2917 20.1363C30.3653 20.3101 30.8849 21.5684 31.0285 21.8971C31.5858 23.1876 33.4487 23.8942 34.8544 22.7549C34.673 23.2348 34.4841 23.7392 34.2744 24.3892C33.3221 27.3516 32.8064 29.5546 32.3397 30.4199C31.873 31.2852 30.866 31.5384 30.1367 31.5384H28.4156C27.4501 31.5384 26.0804 30.9111 25.7138 28.0356C25.3964 25.5417 24.807 20.7371 24.6558 19.4996C26.0501 20.9147 27.9168 20.5368 28.9994 19.4524C29.2941 19.1576 30.388 18.0221 30.5411 17.8653C30.6941 17.7085 30.7602 17.5555 30.7602 17.3571C30.7602 17.1587 30.6941 17.0057 30.5411 16.8489C30.388 16.6921 29.2922 15.5566 28.9994 15.2618C27.8488 14.1075 25.8083 13.7561 24.3932 15.5056C24.3384 14.4948 24.5519 14.2473 25.3341 13.8071C26.1333 13.3574 27.4501 12.0764 26.719 10.053C26.0634 8.23735 24.8788 7.72723 23.3031 3.64062C21.7274 7.72723 20.5428 8.23735 19.8872 10.053C19.1541 12.0764 20.471 13.3574 21.272 13.8071C22.0542 14.2473 22.2696 14.4967 22.2129 15.5056C20.7978 13.7561 18.7574 14.1056 17.6068 15.2618C17.312 15.5566 16.2181 16.6921 16.0651 16.8489C15.912 17.0057 15.8459 17.1587 15.8459 17.3571C15.8459 17.5555 15.912 17.7085 16.0651 17.8653C16.2181 18.0221 17.3139 19.1576 17.6068 19.4524C18.6874 20.5387 20.5541 20.9147 21.9503 19.4996C21.7992 20.7371 21.2097 25.5417 20.8923 28.0356C20.5258 30.913 19.156 31.5384 18.1906 31.5384H16.4694C15.7401 31.5384 14.7331 31.2852 14.2664 30.4199C13.7998 29.5546 13.284 27.3516 12.3318 24.3892C12.1239 23.7411 11.9331 23.2348 11.7517 22.7549C13.1574 23.8942 15.0203 23.1876 15.5776 21.8971C15.7212 21.5665 16.2408 20.3101 16.3145 20.1363C16.3881 19.9625 16.3919 19.8189 16.3296 19.6583C16.2616 19.4996 16.1558 19.4032 15.9819 19.3314C15.8062 19.2597 14.5498 18.7382 14.2154 18.6059C12.9175 18.0921 11.1339 18.8875 10.9261 20.6615C10.6503 19.8737 10.5105 19.3673 10.5898 19.1992C10.7599 18.8364 11.8217 18.1109 11.8217 16.8451C11.8217 16.0138 11.4608 15.4243 10.7712 14.952C9.57336 14.183 7.69348 13.5898 5.15234 12.0557C11.9123 24.5611 12.4659 40.917 12.4659 40.917H34.1383H34.1402Z" fill="#FFCD00"/>
<path d="M65.5495 26.085L60.2179 8.56909C60.2009 8.53509 60.1914 8.48219 60.1914 8.41228C60.1914 8.18556 60.3218 8.07031 60.5844 8.07031H63.63C63.8756 8.07031 64.0418 8.19312 64.1288 8.43873L67.5692 21.0972C67.5862 21.1671 67.6221 21.203 67.675 21.203C67.7279 21.203 67.7619 21.169 67.7808 21.0972L71.1684 8.46518C71.2553 8.20257 71.4215 8.0722 71.6671 8.0722H74.6353C74.7921 8.0722 74.9073 8.12132 74.9772 8.21579C75.0471 8.31215 75.0566 8.43117 75.0037 8.57098L69.5946 26.0869C69.5077 26.3325 69.3414 26.4553 69.0958 26.4553H66.0502C65.8046 26.4553 65.6383 26.3325 65.5514 26.0869L65.5495 26.085Z" fill="black"/>
<path d="M84.5361 22.326C84.6419 22.2031 84.7552 22.1427 84.878 22.1427C84.9838 22.1427 85.0783 22.1861 85.1671 22.2731L86.6634 23.7184C86.7693 23.8242 86.8203 23.9281 86.8203 24.0339C86.8203 24.1567 86.7844 24.2625 86.7145 24.3494C86.1363 25.0674 85.3976 25.6323 84.4945 26.0441C83.5933 26.456 82.6071 26.6619 81.5396 26.6619C79.928 26.6619 78.5942 26.2501 77.5342 25.4282C76.4743 24.6064 75.7621 23.4766 75.3936 22.0407C75.1839 21.2698 75.0781 20.4555 75.0781 19.5978C75.0781 18.5832 75.1745 17.7255 75.3672 17.0245C75.7167 15.7284 76.4214 14.6874 77.4813 13.8996C78.5413 13.1117 79.7958 12.7188 81.2505 12.7188C82.966 12.7188 84.3264 13.227 85.3334 14.2415C86.3404 15.258 86.9922 16.6844 87.2907 18.5227C87.3606 19.1009 87.4135 19.7395 87.4475 20.4404C87.4475 20.7389 87.2983 20.8863 87.0016 20.8863H78.9399C78.8341 20.8863 78.7831 20.9392 78.7831 21.0431C78.836 21.4115 78.8964 21.6817 78.9663 21.8574C79.1402 22.3996 79.4878 22.8153 80.0036 23.1044C80.5194 23.3934 81.1466 23.537 81.8816 23.537C83.0378 23.4841 83.9202 23.0817 84.5342 22.3297L84.5361 22.326ZM79.7958 16.3255C79.4198 16.5975 79.1609 16.9773 79.0211 17.4685C78.9342 17.801 78.8813 18.0202 78.8643 18.126C78.8473 18.2318 78.8908 18.2828 78.9966 18.2828H83.461C83.548 18.2828 83.5933 18.2488 83.5933 18.177C83.5933 17.9843 83.5574 17.7821 83.4875 17.5724C83.3307 17.0642 83.0586 16.6618 82.6732 16.3651C82.2878 16.0685 81.7984 15.9193 81.2033 15.9193C80.6422 15.9193 80.1736 16.0553 79.7977 16.3255H79.7958Z" fill="black"/>
<path d="M92.441 26.1364C91.5663 25.8038 90.8918 25.3391 90.4194 24.7439C89.9471 24.1488 89.7109 23.4743 89.7109 22.7224V22.592C89.7109 22.2954 89.8602 22.1461 90.1568 22.1461H92.8094C93.1061 22.1461 93.2553 22.199 93.2553 22.3029V22.4862C93.2553 22.8716 93.465 23.2004 93.8863 23.4705C94.3058 23.7426 94.8405 23.8767 95.4885 23.8767C96.0836 23.8767 96.5654 23.7634 96.9319 23.5348C97.3003 23.308 97.4836 23.0095 97.4836 22.6411C97.4836 22.3256 97.3268 22.0894 97.0113 21.9326C96.6958 21.7758 96.18 21.6095 95.462 21.4338C94.6043 21.2071 93.9657 21.005 93.5444 20.8293C92.407 20.4438 91.5039 19.9715 90.8389 19.4104C90.1738 18.8511 89.8413 18.0444 89.8413 16.9939C89.8413 15.6979 90.3495 14.6701 91.3641 13.9087C92.3787 13.1473 93.7106 12.7656 95.3562 12.7656C96.4766 12.7656 97.4609 12.9451 98.3111 13.3041C99.1594 13.6631 99.8169 14.1675 100.28 14.8136C100.743 15.4617 100.975 16.1966 100.975 17.0204C100.975 17.1073 100.935 17.1829 100.858 17.2433C100.779 17.3057 100.669 17.3359 100.529 17.3359H97.9559C97.6574 17.3359 97.5101 17.283 97.5101 17.1791V17.0223C97.5101 16.6368 97.3173 16.3138 96.9319 16.0512C96.5465 15.7885 96.0307 15.6582 95.3827 15.6582C94.8046 15.6582 94.3284 15.764 93.9506 15.9737C93.5746 16.1834 93.3857 16.4725 93.3857 16.8409C93.3857 17.2093 93.5652 17.4549 93.9241 17.6287C94.2831 17.8044 94.8745 17.9877 95.6963 18.1804C96.2045 18.2862 96.6939 18.4166 97.1662 18.5734C98.4264 18.9418 99.4164 19.4142 100.134 19.9923C100.852 20.5704 101.211 21.4112 101.211 22.5126C101.211 23.8087 100.695 24.8195 99.662 25.545C98.6285 26.2724 97.2456 26.6351 95.5131 26.6351C94.3398 26.6351 93.3158 26.4689 92.441 26.1364Z" fill="black"/>
<path d="M110.483 15.9197H108.119C108.013 15.9197 107.962 15.9726 107.962 16.0766V21.5121C107.962 22.0903 108.079 22.5154 108.317 22.7855C108.554 23.0576 108.935 23.1917 109.46 23.1917H110.195C110.494 23.1917 110.641 23.341 110.641 23.6376V25.8954C110.641 26.175 110.492 26.3337 110.195 26.3677C109.53 26.4036 109.049 26.4206 108.752 26.4206C107.299 26.4206 106.213 26.175 105.495 25.6856C104.777 25.1963 104.408 24.2857 104.391 22.9537V16.0728C104.391 15.967 104.339 15.916 104.235 15.916H102.895C102.597 15.916 102.449 15.7667 102.449 15.4701V13.3956C102.449 13.099 102.598 12.9497 102.895 12.9497H104.235C104.34 12.9497 104.391 12.8968 104.391 12.7929V9.82479C104.391 9.52816 104.541 9.37891 104.837 9.37891H107.516C107.813 9.37891 107.962 9.52816 107.962 9.82479V12.7929C107.962 12.8987 108.015 12.9497 108.119 12.9497H110.483C110.779 12.9497 110.928 13.099 110.928 13.3956V15.4701C110.928 15.7686 110.779 15.916 110.483 15.916V15.9197Z" fill="black"/>
<path d="M121.564 13.3719V15.6032C121.564 15.9017 121.415 16.049 121.118 16.049H118.728C118.622 16.049 118.571 16.1019 118.571 16.2059V26.002C118.571 26.3005 118.422 26.4479 118.125 26.4479H115.316C115.017 26.4479 114.87 26.2986 114.87 26.002V16.2059C114.87 16.1001 114.817 16.049 114.713 16.049H113.321C113.022 16.049 112.875 15.8998 112.875 15.6032V13.3719C112.875 13.0752 113.024 12.926 113.321 12.926H114.713C114.819 12.926 114.87 12.8731 114.87 12.7692V12.2175C114.87 11.133 115.036 10.2866 115.369 9.68391C115.701 9.07933 116.24 8.65045 116.984 8.39728C117.729 8.14411 118.756 8.03453 120.07 8.06854H120.937C121.233 8.06854 121.383 8.2178 121.383 8.51442V10.3792C121.383 10.6777 121.233 10.8251 120.937 10.8251H120.202C119.59 10.8421 119.165 10.9687 118.928 11.2067C118.692 11.4448 118.573 11.8755 118.573 12.5066V12.7692C118.573 12.875 118.626 12.926 118.73 12.926H121.12C121.419 12.926 121.566 13.0752 121.566 13.3719H121.564Z" fill="black"/>
<path d="M125.136 25.5046C124.085 24.7337 123.367 23.6833 122.982 22.3532C122.736 21.5313 122.613 20.6377 122.613 19.6741C122.613 18.6066 122.746 17.679 123.006 16.8911C123.409 15.5951 124.13 14.5805 125.173 13.8456C126.214 13.1106 127.48 12.7422 128.967 12.7422C130.454 12.7422 131.633 13.1106 132.657 13.8456C133.681 14.5805 134.395 15.5875 134.798 16.8647C135.06 17.6695 135.19 18.5896 135.19 19.6231C135.19 20.5338 135.077 21.418 134.849 22.2757C134.446 23.6417 133.722 24.7129 132.681 25.4932C131.64 26.2716 130.392 26.6627 128.939 26.6627C127.486 26.6627 126.182 26.2773 125.13 25.5064L125.136 25.5046ZM130.388 22.9578C130.79 22.6082 131.079 22.1265 131.255 21.5143C131.395 21.042 131.465 20.4279 131.465 19.676C131.465 18.924 131.395 18.3195 131.255 17.8112C131.079 17.2161 130.79 16.7513 130.388 16.4188C129.985 16.0863 129.487 15.92 128.891 15.92C128.296 15.92 127.824 16.0863 127.422 16.4188C127.019 16.7513 126.73 17.2161 126.554 17.8112C126.415 18.3195 126.345 18.9411 126.345 19.676C126.345 20.4109 126.415 21.0061 126.554 21.5143C126.728 22.1265 127.023 22.6082 127.435 22.9578C127.847 23.3073 128.349 23.483 128.944 23.483C129.504 23.483 129.985 23.3073 130.39 22.9578H130.388Z" fill="black"/>
<path d="M137.504 26.0056V8.51619C137.504 8.21957 137.653 8.07031 137.95 8.07031H140.759C141.056 8.07031 141.205 8.21957 141.205 8.51619V26.0056C141.205 26.3042 141.056 26.4515 140.759 26.4515H137.95C137.651 26.4515 137.504 26.3023 137.504 26.0056Z" fill="black"/>
<path d="M152.447 8.07031H155.257C155.555 8.07031 155.703 8.21957 155.703 8.51619V26.0056C155.703 26.3042 155.553 26.4515 155.257 26.4515H152.447C152.149 26.4515 152.001 26.3023 152.001 26.0056V25.2972C152.001 25.2272 151.979 25.1876 151.935 25.1781C151.892 25.1687 151.852 25.1913 151.816 25.2443C151.098 26.1889 150.101 26.6631 148.824 26.6631C147.633 26.6631 146.579 26.3079 145.659 25.5994C144.741 24.8909 144.106 23.9576 143.754 22.8032C143.456 21.9625 143.309 20.912 143.309 19.6519C143.309 18.3917 143.475 17.2713 143.807 16.3947C144.193 15.2743 144.828 14.3806 145.712 13.7156C146.596 13.0506 147.633 12.718 148.824 12.718C150.12 12.718 151.117 13.1469 151.816 14.0047C151.85 14.0576 151.89 14.0746 151.935 14.0576C151.979 14.0406 152.001 13.9971 152.001 13.9253V8.51619C152.001 8.21957 152.151 8.07031 152.447 8.07031ZM151.975 19.7048C151.975 18.5485 151.792 17.6473 151.423 16.9992C150.985 16.3172 150.399 15.9752 149.664 15.9752C148.859 15.9752 148.245 16.3078 147.826 16.9728C147.407 17.6737 147.195 18.5919 147.195 19.7293C147.195 20.7628 147.378 21.6205 147.747 22.3026C148.166 23.0564 148.807 23.4324 149.664 23.4324C150.435 23.4324 151.03 23.0564 151.45 22.3026C151.799 21.6545 151.975 20.7892 151.975 19.7029V19.7048Z" fill="black"/>
<path d="M61.9899 35.0761L66.2768 35.0818V35.8847L62.9648 35.881V37.9951L66.0822 37.9989V38.8019L62.961 38.7981L62.9573 41.8229H61.9805L61.988 35.0742L61.9899 35.0761Z" fill="black"/>
<path d="M71.3741 38.687L71.3703 41.8365H70.3841L70.3879 38.687L67.7031 35.0859H68.8329L70.8866 37.8746L72.9479 35.0916H74.0683L71.3741 38.6889V38.687Z" fill="black"/>
<path d="M75.7243 35.0938H76.7105L76.703 41.0187L79.9753 41.0224V41.8462L75.7148 41.8405L75.7224 35.0938H75.7243Z" fill="black"/>
<path d="M86.0537 41.854L82.7361 38.6724L82.7323 41.8502H81.7461L81.7536 35.1016H82.7399L82.7361 38.1755L85.9177 35.1072H87.1325L83.7223 38.3682L87.2875 41.8559H86.0519L86.0537 41.854Z" fill="black"/>
<path d="M88.9899 35.1074L93.3731 35.113V35.9065L89.9554 35.9028V38.0282L93.1785 38.032V38.835L89.9516 38.8312V41.0606L93.3656 41.0644V41.8579L88.9805 41.8522L88.988 35.1055L88.9899 35.1074Z" fill="black"/>
<path d="M96.4015 41.7293C95.9651 41.5876 95.5891 41.3798 95.2773 41.1058L95.6325 40.3784C95.9632 40.6467 96.307 40.8394 96.6603 40.9585C97.0136 41.0775 97.4104 41.1361 97.8525 41.138C98.3569 41.138 98.7461 41.0454 99.0201 40.8564C99.294 40.6694 99.432 40.403 99.432 40.0573C99.432 39.7644 99.3054 39.5453 99.0503 39.4017C98.7953 39.2581 98.3872 39.122 97.826 38.9936C97.2895 38.8783 96.8493 38.7461 96.5054 38.6006C96.1615 38.4532 95.8914 38.253 95.6968 38.0017C95.5022 37.7504 95.4058 37.4292 95.4058 37.04C95.4058 36.6451 95.5097 36.2975 95.7176 35.9971C95.9254 35.6967 96.2201 35.4643 96.6037 35.2943C96.9872 35.1261 97.4312 35.0411 97.9337 35.043C98.4061 35.043 98.8501 35.1167 99.2695 35.2603C99.687 35.4039 100.029 35.6098 100.297 35.8781L99.9515 36.6055C99.6398 36.3504 99.3186 36.1596 98.9899 36.0349C98.6611 35.9102 98.3116 35.8478 97.9413 35.8478C97.4557 35.8478 97.076 35.948 96.7983 36.1483C96.5205 36.3485 96.3807 36.6281 96.3807 36.9852C96.3807 37.2913 96.5016 37.5237 96.7435 37.6805C96.9853 37.8373 97.3745 37.979 97.9111 38.1075C98.4722 38.236 98.9275 38.3682 99.2733 38.5061C99.6209 38.644 99.8986 38.833 100.105 39.071C100.312 39.311 100.414 39.6227 100.414 40.0044C100.414 40.3936 100.31 40.7355 100.103 41.0284C99.8948 41.3212 99.5982 41.5479 99.2109 41.7066C98.8255 41.8653 98.3664 41.9447 97.8374 41.9447C97.314 41.9447 96.8341 41.8729 96.3977 41.7331L96.4015 41.7293Z" fill="black"/>
<path d="M106.944 41.8774L103.627 38.6958L103.623 41.8737H102.637L102.644 35.125H103.63L103.627 38.1989L106.808 35.1307H108.023L104.613 38.3916L108.178 41.8793H106.942L106.944 41.8774Z" fill="black"/>
<path d="M110.519 41.5352C110.05 41.2537 109.69 40.8551 109.434 40.3374C109.179 39.8197 109.053 39.2113 109.055 38.5085C109.055 37.8 109.181 37.186 109.434 36.6664C109.688 36.1469 110.05 35.7482 110.523 35.4724C110.995 35.1946 111.551 35.0567 112.189 35.0586C112.833 35.0586 113.391 35.1984 113.863 35.4762C114.335 35.7539 114.696 36.1525 114.948 36.674C115.199 37.1935 115.323 37.8057 115.323 38.5066C115.323 39.2095 115.195 39.8197 114.944 40.3393C114.691 40.8588 114.328 41.2594 113.855 41.539C113.383 41.8186 112.824 41.9584 112.18 41.9584C111.541 41.9584 110.987 41.8167 110.519 41.5352ZM113.759 40.4677C114.137 40.0086 114.326 39.3549 114.326 38.5066C114.326 37.6583 114.141 37.0046 113.769 36.5493C113.396 36.0921 112.867 35.8635 112.185 35.8635C111.515 35.8635 110.993 36.0902 110.619 36.5455C110.245 37.0008 110.058 37.6527 110.056 38.501C110.056 39.3493 110.241 40.003 110.613 40.464C110.986 40.9231 111.507 41.1536 112.178 41.1555C112.854 41.1555 113.381 40.9268 113.757 40.4677H113.759Z" fill="black"/>
<path d="M123.827 35.1521L123.819 41.8989H122.929L122.944 37.0168L120.93 40.8144H120.259L118.245 37.0603L118.249 41.8932H117.359L117.367 35.1445H118.162L120.607 39.8187L123.044 35.1521H123.828H123.827Z" fill="black"/>
<path d="M132.983 35.1638L132.975 41.9106H132.085L132.1 37.0286L130.086 40.8261H129.416L127.402 37.072L127.405 41.9049H126.516L126.523 35.1562H127.319L129.763 39.8304L132.201 35.1638H132.985H132.983Z" fill="black"/>
<path d="M136.086 41.2911C135.621 40.8245 135.389 40.1386 135.391 39.2318L135.396 35.1641H136.373L136.367 39.2998C136.367 39.9195 136.515 40.388 136.811 40.7073C137.108 41.0266 137.55 41.1872 138.136 41.1872C138.716 41.1872 139.156 41.0285 139.456 40.7111C139.757 40.3918 139.908 39.9233 139.908 39.3055L139.914 35.1716H140.89L140.885 39.2393C140.885 40.1386 140.649 40.8226 140.178 41.2911C139.708 41.7597 139.028 41.994 138.134 41.9921C137.235 41.9921 136.553 41.7578 136.086 41.2911Z" fill="black"/>
<path d="M148.781 35.1794L148.774 41.9262H148.018L144.168 36.8288L144.162 41.9205H143.234L143.242 35.1719H143.988L147.848 40.2787L147.854 35.1775H148.781V35.1794Z" fill="black"/>
<path d="M151.146 35.1855L155.529 35.1912V35.9847L152.112 35.9809V38.1064L155.335 38.1102V38.9131L152.108 38.9093V41.1387L155.522 41.1425V41.936L151.137 41.9304L151.144 35.1836L151.146 35.1855Z" fill="black"/>
</g>
<defs>
<clipPath id="clip0_1057_109">
<rect width="155" height="51.5558" fill="white" transform="translate(0.699219 0.660156)"/>
</clipPath>
</defs>
</svg>
