<svg width="200" height="200" viewBox="0 0 200 200" fill="none" xmlns="http://www.w3.org/2000/svg">
  <path fill-rule="evenodd" clip-rule="evenodd" d="M77 22.9358C66.5066 22.9358 58 31.4424 58 41.9358V45H66V41.9358C66 35.8607 70.9249 30.9358 77 30.9358H141.358C147.433 30.9358 152.358 35.8607 152.358 41.9358V139.596C152.358 145.671 147.433 150.596 141.358 150.596H137V158.596H141.358C151.851 158.596 160.358 150.09 160.358 139.596V41.9358C160.358 31.4424 151.851 22.9358 141.358 22.9358H77Z" fill="#fff"/>
  <path fill-rule="evenodd" clip-rule="evenodd" d="M35 63.9358C35 53.4424 43.5066 44.9358 54 44.9358H118.358C128.851 44.9358 137.358 53.4424 137.358 63.9358V161.596C137.358 172.09 128.851 180.596 118.358 180.596H54C43.5066 180.596 35 172.09 35 161.596V63.9358ZM54 52.9358C47.9249 52.9358 43 57.8607 43 63.9358V161.596C43 167.671 47.9249 172.596 54 172.596H118.358C124.433 172.596 129.358 167.671 129.358 161.596V63.9358C129.358 57.8607 124.433 52.9358 118.358 52.9358H54Z" fill="#fff"/>
</svg>